<svg width="40" height="40" viewBox="0 0 40 40" fill="none" xmlns="http://www.w3.org/2000/svg">
<circle cx="20" cy="20" r="20" fill="#C0E300"/>
<g clip-path="url(#clip0_302_2)">
<path fill-rule="evenodd" clip-rule="evenodd" d="M26.39 29.774C26.712 30.002 27.127 30.059 27.497 29.919C27.867 29.778 28.14 29.461 28.222 29.079C29.091 24.997 31.2 14.666 31.992 10.952C32.052 10.673 31.952 10.382 31.732 10.195C31.512 10.008 31.206 9.954 30.934 10.055C26.739 11.606 13.819 16.448 8.538 18.401C8.203 18.524 7.985 18.847 7.996 19.199C8.008 19.553 8.246 19.86 8.589 19.963C10.957 20.671 14.066 21.655 14.066 21.655C14.066 21.655 15.519 26.038 16.276 28.267C16.372 28.546 16.591 28.766 16.88 28.842C17.168 28.917 17.476 28.838 17.691 28.635C18.908 27.488 20.789 25.714 20.789 25.714C20.789 25.714 24.363 28.331 26.39 29.774ZM15.374 21.101L17.054 26.637L17.427 23.131C17.427 23.131 23.917 17.283 27.617 13.949C27.726 13.852 27.74 13.688 27.651 13.573C27.561 13.458 27.397 13.431 27.274 13.509C22.986 16.244 15.374 21.101 15.374 21.101Z" fill="#191919"/>
</g>
<defs>
<clipPath id="clip0_302_2">
<rect width="24" height="20" fill="white" transform="translate(8 10)"/>
</clipPath>
</defs>
</svg>
