<svg width="127" height="40" fill="none" xmlns="http://www.w3.org/2000/svg"><g clip-path="url(#a)"><path fill-rule="evenodd" clip-rule="evenodd" d="M125.874 36.89v-5.999h-2.001a33.767 33.767 0 0 1-.316 2.811c-.127.769-.287 1.396-.481 1.879-.194.484-.426.838-.696 1.063-.27.225-.587.337-.95.337-.109 0-.219-.009-.329-.026a.684.684 0 0 1-.253-.065v-.855c.051.017.106.03.165.039.059.008.118.013.177.013a.697.697 0 0 0 .506-.233c.152-.156.287-.394.405-.713.127-.32.241-.721.342-1.205.101-.493.19-1.071.266-1.737.076-.665.143-1.416.202-2.254H127v6.945h-1.126Zm-9.422-32.721h10.517v2.867h-7.217v3.921h6.676v2.867h-6.676v3.929H127v2.867h-10.548V4.169Zm2.693 26.216c.397.372.595.964.595 1.775v4.73h-.81l-.216-.985h-.05a3.897 3.897 0 0 1-.608.635 1.99 1.99 0 0 1-.708.363 3.413 3.413 0 0 1-.962.117c-.405 0-.773-.074-1.102-.221a1.701 1.701 0 0 1-.759-.673c-.186-.311-.279-.7-.279-1.167 0-.691.266-1.222.798-1.593.532-.381 1.35-.588 2.456-.622l1.151-.039v-.415c0-.579-.122-.98-.367-1.205-.244-.225-.591-.337-1.038-.337a3.02 3.02 0 0 0-1.012.169 6.458 6.458 0 0 0-.899.362l-.342-.855a4.847 4.847 0 0 1 1.051-.415c.405-.12.827-.181 1.266-.181.826 0 1.438.186 1.835.557Zm-.506 3.11-1 .039c-.844.035-1.431.173-1.76.415-.321.242-.481.583-.481 1.023 0 .389.114.674.342.856.236.181.536.272.899.272.573 0 1.05-.16 1.43-.48.38-.328.57-.829.57-1.503v-.622Zm-13.356-16.337c.599.407 1.293.611 2.08.611.442 0 .851-.062 1.227-.185a3.17 3.17 0 0 0 1.014-.538 3.05 3.05 0 0 0 .732-.876 3.53 3.53 0 0 0 .411-1.173l3.339.016a6.618 6.618 0 0 1-.649 2.185 6.438 6.438 0 0 1-3.436 3.173c-.793.316-1.69.474-2.691.474-1.392 0-2.637-.332-3.734-.996-1.092-.664-1.956-1.625-2.592-2.884-.63-1.258-.945-2.782-.945-4.571 0-1.794.321-3.32.961-4.578.64-1.259 1.509-2.218 2.606-2.876 1.098-.664 2.332-.996 3.704-.996.904 0 1.743.134 2.515.401a6.285 6.285 0 0 1 2.065 1.173 5.976 5.976 0 0 1 1.464 1.872c.381.739.625 1.585.732 2.538h-3.339a3.577 3.577 0 0 0-.373-1.213 3.05 3.05 0 0 0-1.746-1.494 3.71 3.71 0 0 0-1.242-.201c-.808 0-1.511.212-2.111.635-.599.418-1.064 1.028-1.394 1.831-.331.798-.496 1.768-.496 2.908 0 1.173.165 2.159.496 2.957.335.797.802 1.4 1.402 1.807Zm-4.112 12.8c.27-.095.586-.143.949-.143.836 0 1.506.298 2.013.894.515.596.772 1.495.772 2.696 0 .786-.118 1.451-.354 1.995-.228.536-.553.942-.975 1.218-.414.268-.903.402-1.469.402-.345 0-.653-.048-.924-.143a2.553 2.553 0 0 1-.696-.363 3.004 3.004 0 0 1-.481-.505h-.076c.017.147.034.333.051.557.017.225.025.419.025.583V40h-1.113V29.945h.911l.152.946h.05c.135-.199.296-.381.481-.545a2.22 2.22 0 0 1 .684-.388Zm-1.165 3.226v.221c0 .57.059 1.053.177 1.451.119.397.317.699.595.907.287.207.676.311 1.165.311.414 0 .751-.117 1.013-.35.27-.233.468-.549.594-.946.136-.406.203-.868.203-1.386 0-.795-.152-1.43-.456-1.905-.295-.475-.755-.713-1.379-.713-.456 0-.823.091-1.102.272-.278.173-.481.436-.607.79-.127.355-.194.804-.203 1.348Zm-5.68 5.792a2.191 2.191 0 0 1-.785.752c-.304.181-.675.272-1.114.272-.203 0-.38-.013-.532-.039a3.29 3.29 0 0 1-.392-.065v-.907c.093.018.202.035.329.052.135.017.274.026.418.026.261 0 .485-.052.671-.155.194-.095.358-.238.493-.428.135-.182.249-.397.342-.648l.355-.92-2.735-6.971h1.19l1.469 3.952c.084.233.16.458.227.674.076.216.144.427.203.635.059.198.105.393.139.583h.051c.051-.216.131-.497.24-.843.11-.354.224-.708.342-1.062l1.38-3.939h1.203l-2.925 7.904c-.16.432-.35.808-.569 1.127Zm-6.38-28.71h-.114V20.62h-3.3V4.169h2.896l6.738 10.346h.136V4.169h3.285V20.62h-2.85l-6.791-10.354Zm-1.861 19.679h1.038v3.369l2.76-3.369h1.202l-2.797 3.369 3.038 3.576H90.06l-2.937-3.524v3.524h-1.038v-3.524l-2.936 3.524h-1.266l3.038-3.576-2.798-3.369h1.216l2.746 3.369v-3.369Zm-8.123-13.076h-5.636l-1.158 3.751h-3.536L73.02 4.169h4.253l5.38 16.451h-3.536l-1.155-3.751Zm-2.755-8.941h-.121l-1.922 6.226h3.961l-1.918-6.226Zm-7.239 26.837c0 .432-.093.808-.278 1.127-.178.32-.46.566-.848.739-.38.173-.883.259-1.507.259h-2.823v-6.945h1.114v2.85h1.76c.59 0 1.076.074 1.456.221.379.147.662.367.848.661.185.285.278.647.278 1.088Zm-1.519-.79c-.278-.156-.68-.234-1.202-.234h-1.621v2.229h1.608c.481 0 .873-.082 1.177-.246.304-.173.456-.471.456-.894 0-.423-.139-.709-.418-.855ZM56.11 10.266h-.114V20.62h-3.3V4.169h2.896l6.738 10.346h.136V4.169h3.285V20.62h-2.85L56.11 10.266Zm-2.657 23.139c0 .578-.076 1.092-.227 1.541a3.122 3.122 0 0 1-.633 1.128 2.649 2.649 0 0 1-1 .712 3.47 3.47 0 0 1-1.304.234c-.447 0-.861-.078-1.241-.234a2.793 2.793 0 0 1-.987-.712 3.423 3.423 0 0 1-.658-1.128c-.152-.449-.228-.963-.228-1.541 0-.769.127-1.417.38-1.944.253-.536.616-.942 1.088-1.218.473-.285 1.034-.428 1.684-.428.616 0 1.156.143 1.62.428.473.276.84.682 1.101 1.218.271.527.405 1.175.405 1.944Zm-1.367-1.413c-.143-.389-.362-.687-.658-.894-.287-.216-.662-.324-1.127-.324-.691 0-1.193.233-1.506.7-.312.466-.468 1.11-.468 1.931 0 .544.067 1.019.202 1.425.144.397.363.704.658.92.296.216.671.324 1.127.324.456 0 .832-.108 1.127-.324.295-.216.51-.523.645-.92.144-.406.215-.881.215-1.425 0-.553-.071-1.024-.215-1.413ZM46.681 4.169h3.3V20.62h-3.3V4.169Zm-1.676 26.748a3.042 3.042 0 0 0-.76-.104c-.456 0-.831.099-1.127.298-.295.199-.514.492-.658.881-.143.389-.215.873-.215 1.451 0 .553.072 1.024.215 1.413.144.389.359.682.646.881.287.199.646.298 1.076.298.371 0 .696-.039.974-.117.287-.077.549-.172.785-.285v1.011a2.923 2.923 0 0 1-.76.272 4.027 4.027 0 0 1-.986.104c-.6 0-1.136-.126-1.608-.376-.464-.251-.831-.639-1.102-1.166-.261-.527-.392-1.201-.392-2.022 0-.855.139-1.55.418-2.086.278-.536.654-.928 1.126-1.179.481-.251 1.026-.376 1.634-.376.345 0 .679.039.999.117.321.069.583.155.785.259l-.342.946a6.415 6.415 0 0 0-.708-.22Zm-7.578-19.96h6.349v2.867h-6.349v6.796h-3.3V4.169h10.334v2.867h-7.034v3.921Zm-2.9 21.877h3.684v-2.889h1.113v6.945h-1.113v-3.097h-3.684v3.097h-1.114v-6.945h1.114v2.889Zm-4.235 3.071h-.05a3.94 3.94 0 0 1-.608.635 1.994 1.994 0 0 1-.709.363 3.404 3.404 0 0 1-.962.117 2.67 2.67 0 0 1-1.101-.221 1.704 1.704 0 0 1-.76-.673c-.185-.311-.278-.7-.278-1.167 0-.691.266-1.222.797-1.593.532-.381 1.351-.588 2.456-.622l1.152-.039v-.415c0-.579-.122-.98-.367-1.205-.245-.225-.591-.337-1.038-.337-.355 0-.692.056-1.013.169-.32.103-.62.224-.899.362l-.341-.855a4.838 4.838 0 0 1 1.05-.415c.405-.12.827-.181 1.266-.181.827 0 1.439.186 1.836.557.396.372.595.964.595 1.775v4.73h-.811l-.215-.985Zm-.076-2.41-1 .039c-.844.035-1.43.173-1.759.415-.321.242-.481.583-.481 1.023 0 .389.114.674.341.856.237.181.536.272.899.272.574 0 1.051-.16 1.431-.48.379-.328.569-.829.569-1.503v-.622ZM18.157 12.709c0-1.675-.042-2.763-.326-3.469.153 1.81.01 3.154.01 3.154 0-2.223-.075-3.386-.709-3.993-.706-.416-1.893-.461-3.887-.461H10.63V0h7.527c3.662 0 8.138 2.208 8.138 7.746v17.043h-8.138v-12.08Zm-2.492 3.914v8.166H8.052C4.43 24.789 0 22.581 0 17.042L.007 0h8.052v12.079c0 2.125.066 3.306.605 3.961.666.531 1.903.583 4.197.583h2.804ZM2.129 30.372c.506-.302 1.114-.479 1.823-.531v-2.799h1.05v2.799c.675.06 1.262.242 1.76.544.506.303.898.709 1.177 1.218.278.51.418 1.115.418 1.814 0 .7-.135 1.309-.405 1.828-.27.509-.654.915-1.152 1.217-.498.294-1.097.471-1.798.532V40H3.914v-3.006c-.667-.061-1.254-.238-1.76-.532a3.162 3.162 0 0 1-1.177-1.217c-.279-.519-.418-1.128-.418-1.828 0-.708.135-1.317.405-1.827.27-.518.658-.924 1.165-1.218Zm2.873 5.689c.506-.061.92-.199 1.241-.415.329-.216.569-.51.721-.881.161-.38.241-.829.241-1.348 0-.518-.08-.963-.241-1.334a1.951 1.951 0 0 0-.734-.881c-.321-.216-.73-.35-1.228-.402v5.261Zm-3.05-1.296c.16.371.405.67.734.894.329.216.751.35 1.266.402v-5.274c-.515.052-.937.186-1.266.402a1.951 1.951 0 0 0-.734.881c-.152.371-.228.82-.228 1.347 0 .519.076.968.228 1.348Zm9.222-.583c0 .078-.004.19-.012.337 0 .138-.004.289-.013.453l-.025.454c-.009.138-.017.25-.025.337l3.632-5.818h1.368v6.945h-1.038v-4.639l.025-.661c.008-.224.017-.393.025-.505l-3.607 5.805h-1.38v-6.945h1.05v4.237Zm8.198-1.348h3.683v-2.889h1.114v6.945h-1.114v-3.097h-3.683v3.097h-1.114v-6.945h1.114v2.889Zm40.05-2.721c.388.104.691.285.911.544.228.251.342.596.342 1.037 0 .432-.127.769-.38 1.011-.253.242-.578.406-.975.492v.052c.422.06.789.216 1.102.466.312.242.468.622.468 1.141 0 .293-.055.566-.165.816a1.607 1.607 0 0 1-.481.648 2.402 2.402 0 0 1-.848.428c-.346.095-.764.142-1.253.142h-2.924v-6.945h2.911c.481 0 .912.056 1.292.168Zm-3.089 5.857h1.683c.557 0 .983-.082 1.279-.246.295-.173.443-.462.443-.868 0-.398-.148-.683-.443-.855-.296-.173-.73-.26-1.304-.26h-1.658v2.229Zm0-5.079v1.904h1.531c.549 0 .967-.077 1.254-.233a.772.772 0 0 0 .43-.726c0-.328-.118-.565-.354-.712-.228-.156-.604-.233-1.127-.233h-1.734Zm13.875 5.999h-1.113v-6.945h1.113v6.945Zm5.258-7.852c-.549 0-.992-.074-1.329-.221a1.451 1.451 0 0 1-.722-.648c-.152-.293-.245-.66-.278-1.101h1.038c.042.466.16.782.354.946.203.155.523.233.962.233.388 0 .692-.082.911-.246.228-.173.363-.484.406-.933h1.05c-.034.432-.139.795-.316 1.089a1.569 1.569 0 0 1-.76.66c-.337.147-.776.221-1.316.221Zm-2.051 5.144c0 .078-.004.19-.013.337 0 .138-.004.289-.012.453l-.026.454a9.96 9.96 0 0 1-.025.337l3.633-5.818h1.367v6.945h-1.038v-4.639l.026-.661c.008-.224.016-.393.025-.505l-3.608 5.805h-1.38v-6.945h1.051v4.237Zm34.379-1.348h3.684v-2.889h1.114v6.945h-1.114v-3.097h-3.684v3.097h-1.114v-6.945h1.114v2.889Z" fill="#fff"/></g><defs><clipPath id="a"><path fill="#fff" d="M0 0h127v40H0z"/></clipPath></defs></svg>