<svg width="152" height="60" fill="none" xmlns="http://www.w3.org/2000/svg"><g clip-path="url(#a)"><path fill-rule="evenodd" clip-rule="evenodd" d="M151.888 56.09c.074.145.112.29.112.399a.706.706 0 0 1-.224.507c-.187.145-.374.218-.561.218h-5.27c-.71 0-1.196-.326-1.495-.942l-3.813-7.249c-.224-.399-.56-.58-1.009-.58h-4.896c.636 0 1.121.217 1.495.616.336.435.523.87.523 1.305v5.98c0 .254-.075.471-.262.616-.186.181-.411.254-.672.254h-5.121c-.411 0-.934-.435-.934-.87V35.105c0-1.776 1.42-3.117 3.251-3.117h7.925c5.755 0 10.465 2.283 10.465 8.264 0 2.935-1.383 5.291-4 6.741-.186.109-.299.254-.299.435-.037.181 0 .29.075.399l4.71 8.263Zm-8.597-18.158c-.635-.507-1.42-.761-2.392-.761h-6.429c1.084 0 2.056.834 2.056 1.921v2.936c0 .29.112.543.336.761.187.217.449.326.786.326h3.251c1.943 0 3.289-.942 3.289-2.9 0-.978-.299-1.739-.897-2.283ZM124.58 57.214h-17.867c-.448 0-.934-.471-.934-.906V35.105c0-1.776 1.421-3.153 3.252-3.153h15.25c.598 0 .972.362.972.942v3.588c0 .254-.074.472-.262.617-.187.181-.411.253-.71.253h-13.792c1.121 0 2.055.87 2.055 1.958v1.522c0 .616.487 1.123 1.122 1.123h8.148c.598 0 .972.363.972.943v3.262c0 .543-.411.942-.972.942h-11.325c1.046 0 2.055.834 2.055 1.884v1.704c0 .616.487 1.124 1.122 1.124h10.914c.635 0 .972.326.972.942v3.552c0 .29-.075.507-.262.652-.186.181-.448.254-.71.254Zm-12.909-46.812c4.784.725 9.606 2.211 9.606 7.611 0 5.908-6.204 7.974-11.325 7.974-3.476 0-7.738-.798-9.98-3.697-.897-1.124-1.345-2.32-1.382-3.588 0-.218.074-.399.224-.544.186-.145.41-.217.597-.217h4.934c.635 0 .972.145 1.346.652.449.761 1.046 1.305 1.831 1.559.748.29 1.57.435 2.43.435.373 0 .785-.037 1.271-.109a4.054 4.054 0 0 0 1.345-.326c.86-.29 1.532-.87 1.532-1.813 0-.616-.261-1.087-.784-1.413a9.793 9.793 0 0 0-1.57-.689c-1.159-.326-2.317-.58-3.513-.87-4.598-.869-8.971-2.537-8.971-7.683C99.262 2.138 104.831 0 109.69 0c3.476 0 7.14 1.124 9.345 3.842.86 1.087 1.308 2.175 1.345 3.226a.942.942 0 0 1-.225.579.766.766 0 0 1-.56.218H114.4c-.561 0-.972-.218-1.271-.652-.112-.327-.262-.617-.524-.87a3.403 3.403 0 0 0-.859-.544c-.336-.109-.71-.218-1.046-.29-.337-.036-.673-.072-1.01-.072-1.495 0-3.289.362-3.289 2.102 0 .688.373 1.268 1.121 1.667s2.131.797 4.149 1.196ZM84.134 25.697h-9.98c-.561 0-.934-.363-.934-.906V3.588c0-1.74 1.457-3.153 3.251-3.153h7.476c6.84 0 11.586 3.081 11.737 9.858.036.326.036.725.036 1.196v3.117c0 .471 0 .87-.036 1.196-.226 6.597-4.075 9.895-11.55 9.895Zm4.522-14.171c-.037-.435-.037-.834-.074-1.16-.075-3.009-1.683-4.531-4.822-4.531h-5.607c1.047 0 2.056.834 2.056 1.885v11.453c0 .326.112.58.336.797.187.218.486.326.823.326h2.579c3.214 0 4.56-1.522 4.635-4.566.037-.326.037-.725.074-1.196v-3.008Zm-12.684 20.39c.262 0 .486.072.673.253a1 1 0 0 1 .262.689v23.377c0 .218-.075.435-.262.653a.95.95 0 0 1-.673.29h-4.223c-.561 0-.972-.218-1.271-.689a3909.911 3909.911 0 0 1-4.037-5.98c-.71-1.051-1.308-1.921-1.719-2.573-.411-.617-.823-1.233-1.196-1.776a81.495 81.495 0 0 1-.935-1.378 9.006 9.006 0 0 1-.448-.652l-.374 12.142c0 .507-.449.906-.972.906H56.05c-.448 0-.934-.471-.934-.906V35.069c0-1.74 1.458-3.153 3.252-3.153h1.233c1.047 0 1.533.326 2.13 1.123 1.458 2.211 2.804 4.241 3.963 6.017.71 1.087 1.308 1.957 1.719 2.573.411.652.785 1.232 1.159 1.776.373.544.672 1.015.934 1.413.262.399.411.617.449.689l.336-10.438c0-1.776 1.458-3.153 3.289-3.153h2.392Zm-6.48-6.219H64.67c-.635 0-1.046-.254-1.27-.798l-1.944-5.11c-3.103 1.124-6.466 1.595-9.756 1.595h-1.308c.411.072.748.29 1.009.652.262.435.299.943.075 1.486l-.523 1.377c-.224.544-.636.798-1.271.798H44.86c-.186 0-.373-.073-.56-.217-.15-.182-.224-.363-.224-.544 0-.181 0-.29.037-.326l8.671-23.124c.262-.689.785-1.051 1.495-1.051h5.794c.71 0 1.233.362 1.495 1.051L70.24 24.61c.037.036.037.145.037.326 0 .398-.374.761-.785.761ZM57.157 6.778l-3.363 9.423c1.906-.109 4.522-.544 6.242-1.45l-2.879-7.973ZM46.462 31.733h2.803c.561 0 .972.362.972.906v9.604c0 6.995-4.672 9.931-11.213 9.931-6.915 0-11.288-3.226-11.288-9.931V34.85c0-.508.112-.943.336-1.341.187-.399.449-.725.785-.979a3.284 3.284 0 0 1 1.046-.616 3.99 3.99 0 0 1 1.084-.181h2.804c.56 0 .971.362.971.906v9.532c0 2.755 1.271 4.458 4.224 4.458 2.99 0 4.224-1.667 4.224-4.458v-7.358c0-.507.112-.942.336-1.341.486-1.051 1.719-1.739 2.916-1.739Zm-5.287-6.109H23.309c-.561 0-.935-.362-.935-.906V3.516c0-1.776 1.421-3.154 3.252-3.154h15.25c.486 0 .972.472.972.943v3.588a.764.764 0 0 1-.299.616c-.187.181-.411.254-.673.254h-13.83c1.122 0 2.056.87 2.056 1.957v1.522c0 .653.523 1.124 1.159 1.124h8.111c.635 0 .971.326.971.942v3.262c0 .616-.336.942-.971.942H27.046c1.047 0 2.056.834 2.056 1.885V19.1c0 .254.112.508.337.762.186.253.486.362.822.362h10.914c.598 0 .972.363.972.942v3.552c0 .508-.449.906-.972.906Zm-18.412 30.72c0 .29-.075.507-.262.652-.187.182-.411.254-.71.254h-5.046c-.523 0-.972-.399-.972-.906v-8.59c0-.362-.112-.616-.336-.797a1.347 1.347 0 0 0-.785-.254c-.112 0-.224.036-.374.073-2.28.616-4.597.797-6.952.797-.486 0-.935 0-1.271-.036h-.822c.486.072.934.29 1.271.616.336.362.486.797.486 1.269v6.922c0 .29-.075.507-.262.652-.187.182-.411.254-.71.254H.934c-.56 0-.934-.362-.934-.906V35.141c0-1.739 1.458-3.153 3.252-3.153h2.766c.635 0 .972.326.972.943v8.408c0 .399.149.689.448.834.299.181.523.254.71.254 2.542-.073 4.523-.291 6.878-1.269.448-.254.747-.508.747-1.051v-4.966c0-1.739 1.495-3.153 3.252-3.153h2.766c.635 0 .972.326.972.943v23.413ZM18.24 25.588H.934c-.448 0-.934-.471-.934-.906V3.443C0 2.102.86 1.087 2.056.544A3.48 3.48 0 0 1 3.252.326H6.13c.299 0 .523.073.673.254a.858.858 0 0 1 .261.652v17.579c0 .181.112.435.299.688.187.29.486.435.823.435H18.24c.523 0 .972.399.972.906v3.842c0 .507-.449.906-.972.906Zm13.07 29.195h15.397c.949 0 1.718.767 1.718 1.714v1.789c0 .946-.769 1.714-1.718 1.714H31.31a1.716 1.716 0 0 1-1.717-1.714v-1.789c0-.947.769-1.714 1.717-1.714Zm52.239-22.867h17.941c.56 0 .972.362.972.906v4.059c0 .544-.412.906-.972.906h-8.672c1.047 0 2.13.834 2.13 1.885v16.6a.765.765 0 0 1-.298.616c-.188.181-.412.253-.673.253h-5.195c-.262 0-.486-.072-.673-.253a.766.766 0 0 1-.299-.616V38.874c0-.616-.486-1.087-1.122-1.087h-5.419c-.524 0-.972-.399-.972-.906v-1.848c0-1.704 1.495-3.117 3.252-3.117Z" fill="#fff"/></g><defs><clipPath id="a"><path fill="#fff" d="M0 0h152v60H0z"/></clipPath></defs></svg>