<svg width="136" height="60" fill="none" xmlns="http://www.w3.org/2000/svg"><g clip-path="url(#a)"><path fill-rule="evenodd" clip-rule="evenodd" d="M75.427 22.173 136 21.342l-2.45 1.882-17.311 2.014-.129 2.577h-1.14l-.348-2.391-12.76 1.47-.218 2.825h-1.058l-.334-2.639-5.637.687c-.04 1.863-.559 4.405-3.684 4.405-2.478 0-3.344-1.841-3.617-3.553l-11.32 1.313c-.11.147-.231.285-.362.412-2.067 1.918-5.82 3.684-6.503 3.684h-2.306c-.675 0-4.456-1.766-6.503-3.684a3.515 3.515 0 0 1-.368-.412l-11.321-1.313c-.273 1.712-1.132 3.553-3.609 3.553-3.125.007-3.651-2.542-3.685-4.405l-5.643-.687-.307 2.639h-1.058l-.239-2.811-12.725-1.484-.342 2.378h-1.139l-.13-2.578L2.45 23.211 0 21.342l60.389.824.156-.144-.11-.722H46.4C46.4 9.534 56.023-.004 67.894-.004S89.388 9.534 89.388 21.3H75.554l-.127.873Zm57.427-.014-39.897.529c.293.178.561.393.799.64l39.098-1.169Zm-44.751 5.07a3.11 3.11 0 0 0 1.139 1.392 3.073 3.073 0 0 0 1.716.521l.006.02a3.072 3.072 0 0 0 2.18-.922 3.102 3.102 0 0 0 .891-2.205c0-.614-.181-1.215-.52-1.726a3.098 3.098 0 0 0-1.385-1.144 3.067 3.067 0 0 0-3.362.676 3.118 3.118 0 0 0-.665 3.388Zm-10.786-3.386 10.686-.323c.255-.294.552-.549.88-.756l-12.869.172 1.303.907ZM4.06 22.159l38.212 1.148c.234-.246.5-.459.791-.632L4.06 22.159Zm40.735.807a3.058 3.058 0 0 0-1.535.557c-.452.321-.81.759-1.036 1.268-.069.163-.124.33-.164.502l-.041.138a3.12 3.12 0 0 0 .842 2.801c.579.582 1.363.91 2.181.91l-.007.013c.554 0 1.097-.151 1.573-.436a3.083 3.083 0 0 0 1.13-1.184 3.114 3.114 0 0 0-.123-3.166 3.063 3.063 0 0 0-2.82-1.403Zm2.322-.216c.319.206.609.456.859.743l10.693.323.948-.901-12.5-.165ZM11.983 54.561l5.603-13.056h4.175l-7.857 18.28H9.756l-7.831-18.28h4.538l5.52 13.056Zm13.259-15.328c.743 0 1.348.209 1.815.627.466.4.7.922.7 1.567 0 .679-.234 1.244-.7 1.697-.45.435-1.055.653-1.815.653-.744 0-1.349-.218-1.815-.653a2.124 2.124 0 0 1-.701-1.619c0-.644.234-1.184.701-1.619.466-.435 1.071-.653 1.815-.653Zm2.022 20.552h-4.045V45.736h4.045v14.049Zm6.01-3.238a9.695 9.695 0 0 0 2.593.365c.933 0 1.59-.112 1.971-.339.397-.226.596-.54.596-.94 0-.331-.156-.575-.467-.731-.294-.174-.691-.305-1.192-.392a58.716 58.716 0 0 0-1.66-.261c-.588-.087-1.184-.2-1.789-.34a6.423 6.423 0 0 1-1.66-.678 3.512 3.512 0 0 1-1.218-1.202c-.294-.505-.441-1.158-.441-1.958 0-.888.251-1.672.752-2.351.518-.679 1.262-1.21 2.23-1.593.968-.4 2.126-.6 3.474-.6.951 0 1.919.104 2.904.313.986.209 1.807.514 2.464.914l-1.349 2.899a6.512 6.512 0 0 0-2.048-.81 8.73 8.73 0 0 0-1.971-.235c-.898 0-1.555.122-1.97.366-.415.244-.623.557-.623.94 0 .348.147.609.441.783.311.174.718.314 1.219.418.501.105 1.046.2 1.633.287.606.07 1.211.183 1.816.34a5.993 5.993 0 0 1 1.633.679c.501.279.908.67 1.219 1.175.311.488.466 1.132.466 1.933a3.73 3.73 0 0 1-.777 2.324c-.519.661-1.271 1.184-2.256 1.567-.968.383-2.152.574-3.553.574-1.192 0-2.342-.139-3.448-.418-1.089-.296-1.954-.661-2.593-1.096l1.348-2.925c.64.4 1.392.731 2.256.992Zm13.153-4.466c.881-.365 2.031-.548 3.448-.548h3.216c0-.87-.268-1.549-.804-2.037-.519-.487-1.323-.731-2.412-.731-.743 0-1.478.122-2.204.365-.708.227-1.313.54-1.815.941l-1.452-2.847c.761-.54 1.677-.957 2.749-1.253a12.22 12.22 0 0 1 3.267-.444c2.126 0 3.777.505 4.952 1.514 1.176 1.01 1.764 2.586 1.764 4.727v8.017H53.35v-1.769a3.539 3.539 0 0 1-1.245 1.273c-.778.47-1.78.705-3.008.705-1.089 0-2.022-.183-2.8-.548-.778-.383-1.374-.897-1.789-1.541a3.915 3.915 0 0 1-.622-2.168c0-.835.198-1.566.596-2.193.415-.627 1.063-1.114 1.945-1.463Zm1.996 4.727c.415.296.977.444 1.686.444.674 0 1.279-.156 1.815-.47.536-.331.925-.809 1.167-1.436v-1.437h-2.775c-.951 0-1.607.157-1.97.471a1.517 1.517 0 0 0-.519 1.175c0 .522.199.94.596 1.253Zm27.674-2.247 5.604-13.056h4.175l-7.857 18.28H73.87l-7.83-18.28h4.537l5.52 13.056Zm13.259-15.328c.744 0 1.349.209 1.815.627.467.4.7.922.7 1.567 0 .679-.233 1.244-.7 1.697-.449.435-1.054.653-1.815.653-.743 0-1.348-.218-1.815-.653a2.123 2.123 0 0 1-.7-1.619c0-.644.233-1.184.7-1.619.467-.435 1.072-.653 1.815-.653Zm2.023 20.552h-4.045V45.736h4.045v14.049Zm6.01-3.238a9.69 9.69 0 0 0 2.593.365c.933 0 1.59-.112 1.97-.339.398-.226.597-.54.597-.94 0-.331-.156-.575-.467-.731-.294-.174-.691-.305-1.193-.392a58.047 58.047 0 0 0-1.659-.261c-.588-.087-1.184-.2-1.789-.34a6.394 6.394 0 0 1-1.66-.678 3.514 3.514 0 0 1-1.219-1.202c-.293-.505-.44-1.158-.44-1.958 0-.888.251-1.672.751-2.351.519-.679 1.262-1.21 2.23-1.593.968-.4 2.127-.6 3.475-.6.951 0 1.919.104 2.904.313.986.209 1.807.514 2.463.914l-1.348 2.899a6.512 6.512 0 0 0-2.048-.81 8.736 8.736 0 0 0-1.971-.235c-.899 0-1.556.122-1.971.366-.414.244-.622.557-.622.94 0 .348.147.609.441.783.311.174.717.314 1.218.418.502.105 1.046.2 1.634.287.605.07 1.21.183 1.815.34a6 6 0 0 1 1.634.679c.501.279.907.67 1.218 1.175.312.488.467 1.132.467 1.933 0 .87-.259 1.645-.778 2.324-.518.661-1.27 1.184-2.256 1.567-.968.383-2.152.574-3.552.574-1.193 0-2.342-.139-3.448-.418-1.09-.296-1.954-.661-2.594-1.096l1.349-2.925c.64.4 1.391.731 2.256.992ZM109.4 42.628h4.045v3.421h3.475v3.134h-3.475v5.719c0 .592.156 1.053.467 1.384.311.313.735.47 1.271.47.64 0 1.184-.174 1.634-.522l1.088 2.872c-.414.296-.916.523-1.503.679a7.493 7.493 0 0 1-1.79.209c-1.642 0-2.921-.418-3.837-1.254-.916-.853-1.375-2.115-1.375-3.786v-5.771h-2.152v-3.134h2.152v-3.421Zm12.41 9.453c.881-.365 2.031-.548 3.448-.548h3.216c0-.87-.268-1.549-.804-2.037-.519-.487-1.323-.731-2.412-.731-.743 0-1.478.122-2.204.365-.709.227-1.313.54-1.815.941l-1.452-2.847c.761-.54 1.677-.957 2.748-1.253a12.227 12.227 0 0 1 3.268-.444c2.126 0 3.777.505 4.952 1.514 1.176 1.01 1.764 2.586 1.764 4.727v8.017h-3.786v-1.769a3.547 3.547 0 0 1-1.245 1.273c-.778.47-1.78.705-3.008.705-1.089 0-2.022-.183-2.8-.548-.778-.383-1.375-.897-1.789-1.541a3.915 3.915 0 0 1-.622-2.168c0-.835.198-1.566.596-2.193.415-.627 1.063-1.114 1.945-1.463Zm1.996 4.727c.415.296.977.444 1.686.444.674 0 1.279-.156 1.815-.47.535-.331.924-.809 1.167-1.436v-1.437h-2.775c-.951 0-1.608.157-1.971.471a1.516 1.516 0 0 0-.518 1.175c0 .522.199.94.596 1.253Z" fill="#6B6B6B"/></g><defs><clipPath id="a"><path fill="#fff" d="M0 0h136v60H0z"/></clipPath></defs></svg>