<svg width="196" height="40" fill="none" xmlns="http://www.w3.org/2000/svg"><g clip-path="url(#a)"><path fill-rule="evenodd" clip-rule="evenodd" d="M196 16.053v1.852h-8.901V3.17h8.794v1.853h-6.814v4.525h6.283v1.832h-6.283v4.673H196Zm-14.07-9.136-7.667 10.988h-1.596V3.17h1.98v11.009l7.667-11.01h1.596v14.736h-1.98V6.917Zm-13.454 10.988-6.431-7.073v7.073h-1.98V3.17h1.98v6.652l6.217-6.652h2.428l-6.579 7.157 6.793 7.578h-2.428Zm-17.086-1.642c1.023 0 1.953-.238 2.79-.715.852-.492 1.49-1.137 1.916-1.937l1.725.968c-.625 1.095-1.512 1.972-2.661 2.632-1.136.645-2.393.968-3.77.968-2.271 0-4.138-.737-5.601-2.21-1.461-1.46-2.192-3.27-2.192-5.431s.731-3.972 2.192-5.431c1.463-1.474 3.33-2.211 5.601-2.211 1.349 0 2.598.323 3.748.969 1.15.646 2.045 1.516 2.683 2.61l-1.725.99c-.426-.814-1.064-1.46-1.916-1.937-.837-.491-1.767-.737-2.79-.737-1.732 0-3.137.547-4.216 1.642-1.079 1.08-1.619 2.449-1.619 4.105 0 1.642.54 3.003 1.619 4.083 1.079 1.095 2.484 1.642 4.216 1.642Zm-12.175-9.346-7.666 10.988h-1.597V3.17h1.98v11.009l7.667-11.01h1.596v14.736h-1.98V6.917Zm-6.516-6.925h5.749v1.6h-5.749v-1.6ZM118.66 3.17h8.794v1.853h-6.814v4.525h6.282v1.832h-6.282v4.673h6.921v1.852h-8.901V3.17Zm-5.179 1.853h-6.857v12.882h-1.981V3.17h10.818v14.735h-1.98V5.023ZM94.532 18.179c-2.157 0-3.982-.744-5.473-2.231-1.49-1.502-2.235-3.305-2.235-5.41 0-2.133.745-3.937 2.235-5.41 1.491-1.488 3.316-2.232 5.473-2.232 2.158 0 3.982.744 5.473 2.232 1.505 1.473 2.257 3.277 2.257 5.41 0 2.119-.752 3.922-2.257 5.41-1.491 1.487-3.315 2.23-5.473 2.23Zm4.089-11.725c-1.079-1.11-2.442-1.663-4.089-1.663-1.632 0-3.002.554-4.11 1.663-1.093 1.109-1.639 2.47-1.639 4.084 0 1.6.546 2.96 1.639 4.083 1.108 1.095 2.478 1.642 4.11 1.642 1.647 0 3.01-.547 4.089-1.642 1.108-1.122 1.661-2.483 1.661-4.083 0-1.628-.553-2.99-1.661-4.084Zm-18.057 6.189h-3.429v5.262h-1.98V3.17h5.409c1.363 0 2.505.456 3.428 1.369.923.912 1.384 2.034 1.384 3.367 0 1.334-.461 2.456-1.384 3.368-.923.913-2.065 1.369-3.428 1.369Zm2.044-6.82c-.539-.548-1.221-.821-2.044-.821h-3.429v5.81h3.429c.837 0 1.519-.274 2.044-.822.539-.575.809-1.27.809-2.084 0-.841-.27-1.536-.809-2.083ZM68.485 17.905h-6.432V3.17h5.963c1.178 0 2.165.386 2.96 1.158.809.772 1.214 1.726 1.214 2.863 0 1.319-.54 2.344-1.619 3.073.696.337 1.243.807 1.64 1.41.398.604.596 1.292.596 2.063 0 1.179-.418 2.168-1.256 2.968-.838.8-1.86 1.2-3.066 1.2Zm1.085-12.23a2.06 2.06 0 0 0-1.554-.673h-3.982v4.504h3.982c.625 0 1.15-.217 1.576-.652.426-.435.639-.97.639-1.6 0-.618-.221-1.144-.661-1.58Zm.576 6.315c-.441-.463-.994-.694-1.661-.694h-4.451v4.778h4.451c.667 0 1.227-.232 1.682-.695.454-.463.681-1.031.681-1.705a2.28 2.28 0 0 0-.702-1.684ZM50.761 3.17h8.795v1.853h-6.814v4.525h6.282v1.832h-6.282v4.673h6.921v1.852h-8.902V3.17Zm6.921 19.373c2.158 0 3.982.744 5.473 2.23 1.505 1.475 2.257 3.278 2.257 5.41 0 2.12-.752 3.924-2.257 5.41-1.491 1.489-3.315 2.232-5.473 2.232s-3.982-.743-5.473-2.231c-1.49-1.501-2.236-3.305-2.236-5.41 0-2.133.746-3.936 2.236-5.41 1.491-1.487 3.315-2.231 5.473-2.231Zm-4.11 11.725c1.108 1.094 2.478 1.642 4.11 1.642 1.647 0 3.01-.548 4.089-1.642 1.107-1.123 1.661-2.484 1.661-4.084 0-1.628-.554-2.99-1.661-4.084-1.079-1.108-2.442-1.663-4.089-1.663-1.632 0-3.002.555-4.11 1.663-1.093 1.109-1.639 2.47-1.639 4.084 0 1.6.546 2.96 1.639 4.084Zm-36.603 5.74H0V.714h36.489v39.293h-19.52Zm3.194-3.51H32.94V4.223H20.163V36.5ZM16.614 4.223H3.549v12.304h13.065V4.222Zm0 15.812H3.549V36.5h13.065V20.034Zm53.16 9.434 6.218-6.651h2.427l-6.58 7.157 6.793 7.578h-2.427l-6.431-7.073v7.073h-1.981V22.817h1.981v6.65Zm12.602-.4h7.24v-6.251h1.959v14.735h-1.959V30.92h-7.24v6.63h-1.98V22.818h1.98v6.252Zm18.757-6.251 5.557 14.735h-2.107l-1.215-3.305h-6.707l-1.215 3.305h-2.107l5.557-14.735h2.237Zm1.554 9.598-2.683-7.262-2.662 7.262h5.345Z" fill="#fff"/></g><defs><clipPath id="a"><path fill="#fff" d="M0 0h196v40H0z"/></clipPath></defs></svg>