<svg width="130" height="60" fill="none" xmlns="http://www.w3.org/2000/svg"><g clip-path="url(#a)"><path fill-rule="evenodd" clip-rule="evenodd" d="M123.196 28.971c1.399 0 2.708-.35 3.927-1.051A7.849 7.849 0 0 0 130 25.011v3.906c-2.026 1.707-4.293 2.56-6.804 2.56-2.85 0-5.297-1.024-7.341-3.072-2.044-2.065-3.066-4.526-3.066-7.382 0-2.874 1.013-5.335 3.039-7.382 2.044-2.048 4.5-3.072 7.368-3.072 2.529 0 4.796.871 6.804 2.614v3.853a7.847 7.847 0 0 0-2.877-2.91c-1.184-.701-2.492-1.051-3.927-1.051-2.169 0-4.024.781-5.566 2.344-1.542 1.563-2.313 3.431-2.313 5.604 0 2.191.762 4.068 2.286 5.631 1.542 1.545 3.406 2.317 5.593 2.317Zm-20.091 2.452v-2.398c2.563 0 4.051-.62 4.463-1.859.126-.377.189-1.096.189-2.155-1.918 0-3.586-.647-5.002-1.94-1.416-1.311-2.125-2.919-2.125-4.823v-6.924h2.475v6.924c0 1.203.483 2.218 1.451 3.045a4.685 4.685 0 0 0 3.201 1.212V11.324h2.528v14.414c0 2.12-.7 3.637-2.098 4.553-1.148.755-2.842 1.132-5.082 1.132Zm-11.616-6.412v5.712h-2.528V11.324c1.703 0 3.075.107 4.114.323 1.596.323 2.932 1.105 4.008 2.344 1.075 1.239 1.613 2.658 1.613 4.257 0 1.922-.717 3.529-2.151 4.823-1.435 1.293-3.12 1.94-5.056 1.94Zm3.227-9.808a4.912 4.912 0 0 0-3.227-1.158v8.46c1.219 0 2.304-.404 3.254-1.212.95-.827 1.425-1.842 1.425-3.045 0-1.204-.484-2.218-1.452-3.045ZM75.995 31.477c-2.689 0-5.029-.925-7.019-2.775-1.972-1.85-3.065-4.122-3.281-6.817h-2.043v8.838h-2.528V11.324h2.528v8.217h2.017c.394-2.586 1.559-4.724 3.495-6.412 1.955-1.707 4.231-2.56 6.831-2.56 2.886 0 5.333 1.024 7.342 3.072 2.025 2.029 3.038 4.49 3.038 7.382 0 2.874-1.013 5.335-3.038 7.382-2.026 2.048-4.474 3.072-7.342 3.072Zm5.567-16.058c-1.542-1.563-3.398-2.344-5.567-2.344-2.17 0-4.025.781-5.566 2.344-1.525 1.563-2.286 3.431-2.286 5.604 0 2.191.761 4.068 2.286 5.631 1.523 1.545 3.379 2.317 5.566 2.317s4.043-.772 5.567-2.317c1.541-1.563 2.312-3.44 2.312-5.631 0-2.173-.771-4.041-2.312-5.604ZM46.964 45.77c-5.597 5.971-12.447 10.161-19.769 13.647-.349.164-.659.39-.988.588h-.212c-2.141-1.155-4.298-2.28-6.42-3.47-5.586-3.128-10.747-6.815-15.012-11.646C2.016 42.004.128 38.703.071 34.807-.07 25.163.031 15.516.01 5.87c0-.645.232-.942.81-1.156C5.201 3.09 9.715 1.95 14.302 1.089c3.23-.607 6.511-.808 9.78-1.087L28.33.001c3.269.231 6.517.626 9.752 1.162 3.699.612 7.323 1.491 10.857 2.74.199.07.385.18.583.254 2.778 1.031 2.779 1.03 2.779 4.012 0 8.364-.087 16.729.031 25.09.071 5.039-2.094 9.016-5.368 12.511Zm2.727-13.53c-.244-3.563-.048-7.157-.048-10.738 0-4.502-.028-9.006.023-13.506.011-.915-.297-1.306-1.134-1.574-5.499-1.758-11.1-2.989-16.868-3.483-9.661-.827-19.02.564-28.179 3.61-.586.194-.816.476-.813 1.137.03 8.831.023 17.654.033 26.481a10.99 10.99 0 0 0 .106 1.691c.587 3.681 2.752 6.466 5.261 9.007 5.035 5.104 11.115 8.689 17.461 11.882.393.198.744.287 1.187.063 6.524-3.306 12.798-6.983 17.929-12.312 3.278-3.41 5.383-7.263 5.042-12.258ZM29.078 54.614c-1.958 1.579-3.726 1.267-5.822.054-5.498-3.179-10.877-6.479-15.236-11.192-2.809-3.041-4.486-6.431-4.377-10.783.197-7.97.065-15.949.036-23.925 0-.719.183-1.074.883-1.302 14.365-4.697 28.724-4.746 43.096-.031.785.257 1.003.628.995 1.428-.043 4.356-.022 8.717-.021 13.076 0 3.794-.11 7.59.033 11.377.132 3.49-1.186 6.338-3.305 8.936-3.895 4.773-8.919 8.113-14.159 11.172-.699.409-1.501.688-2.123 1.19ZM17.826 40.692c.13.227.281.887.686.35.492-.652.678-.123.935.124.992.955 1.879 2.033 3.335 2.419-.123-.115-.244-.231-.369-.344-2.264-2.041-3.835-4.607-5.205-7.266-.794-1.541-.908-3.356-1.262-5.083a10.08 10.08 0 0 0-.121 2.068c.083 2.729.634 5.34 2.001 7.732ZM8.854 15.385c-.385 1.492.635 3.574 2.186 4.347.045-.625.103-1.302-.266-1.596-.934-.747-.859-1.688-.84-2.683.006-.325.273-.886-.311-.936-.489-.042-.662.443-.769.868Zm26.201 2.416c-.568-3.774-4.706-5.761-7.952-3.777-.68.416-1.246.525-1.92-.021-1.135-.916-2.444-1.042-3.811-.603-1.578.508-3.147 1.049-4.726 1.552-.246.079-.582.325-.786.025-.936-1.392-2.531-1.836-3.828-2.703-.397-.268-.899-.416-1.373-.52-.382-.087-.655.217-.851.525-.162.251.006.412.223.473 1.546.437 2.077 1.776 2.778 3.011.283.5.191 1.799 1.472 1.079.19-.106.267.184.255.35-.028.421-.04.851-.141 1.257-.606 2.417-1.789 4.611-2.715 6.908-.992 2.456-1.335 4.974-.926 7.589.042.272.097.865.389.679 1.263-.806 1.06.437 1.235.891.722 1.854 1.521 3.638 3.117 5.121.182-.548-.036-.857-.151-1.182-1.19-3.392-1.314-6.849-.602-10.347.108-.524.135-1.506 1.1-.567.448.437.556.009.687-.339a16.844 16.844 0 0 1 2.497-4.419c1.083-1.385 1.078-1.385-.376-2.243-.175-.102-.437-.243-.449-.385-.027-.288.304-.338.511-.448 1.135-.605 2.378-.612 3.619-.603.756.008 1.606.011 2.055-.617.45-.628.8-.902 1.472-.473.567.363 1.2-.399 1.795.186.494.486 1.204.568 1.895.512 1.553-.124 3.11-.175 4.657.032.823.11.96-.214.85-.943Zm6.012-5.945c-1.588.511-2.754 1.704-4.082 2.658 2.139.17 3.349-2.355 5.675-1.708-.301-.944-.904-1.172-1.593-.95Zm.243 7.839c1.614-.647 2.755-3.215 2.076-4.582-.143-.287-.317-.645-.67-.589-.498.079-.199.51-.213.786-.047.836.188 1.805-.503 2.405-.676.578-.668 1.229-.695 1.98h.005Zm-2.367 17.207c.206-.374.255-1.187 1.041-.466.3.276.366-.147.436-.362 1.044-3.336 1.008-6.652-.097-9.902-.678 2.387.641 4.861-.996 7.465-1.195 1.904-1.648 4.396-3.032 6.372 1.163-.819 1.979-1.897 2.648-3.107Zm-7.758-13.246c.092-.926.487-1.023 1.216-.896 1.495.258 2.751 1.07 4.354 1.918-.772-1.879-2.05-2.809-3.547-3.486-.22-.1-.657-.068-.807.087-1.247 1.282-2.189.625-3.108-.413-.114-.128-.289-.202-.437-.297-3.316-2.115-7.514.498-7.691 2.901-.175 2.36-.035 4.741-.007 7.112.006.477.174.912.772.971.681.067 1.706-.365 1.516 1.024-.009.059.209.174.335.223 1.456.571 2.933.797 4.436.189.343-.138.855-.245.722-.75-.174-.672.152-.731.643-.676 1.333.15 1.745-.511 1.696-1.758-.087-2.047-.297-4.088-.093-6.149Zm-2.31 5.161c.557.124 1.099.307 1.098.941 0 .587-.611.584-1.032.716-.901.28-1.828.14-2.748.23-.95-.077-1.901-.143-2.85-.238-.477-.048-.951-.201-.954-.787 0-.565.444-.738.921-.856 2.152-.533 2.808-2.252 1.529-4.033-.33-.459-.717-.917-1.141-.049-.276.563-.59.376-.873.008-.594-.775-.602-1.574.01-2.332 1.531-1.896 4.782-1.99 6.438-.217.621.666.812 1.418.436 2.241-.262.57-.681 1.018-1.246.275-.376-.493-.599-.263-.879.07-1.41 1.693-.821 3.56 1.291 4.031Zm34.339 6.509h4.077v1.756h-4.077v10.537h-2.09V37.082c0-.966.961-1.756 2.09-1.756Zm11.283 1.756v4.39c0 .755-.961 1.37-2.09 1.37h-1.986v4.777h-2.09V35.326h4.076c1.129 0 2.09.79 2.09 1.756Zm-4.076 4.39h1.986v-4.39h-1.986v4.39Zm7.635 2.617h1.986v-8.763h2.091v12.293c0 .93-.941 1.756-2.091 1.756h-4.076v-1.756h4.076v-1.757h-1.986c-1.129 0-2.09-.807-2.09-1.773v-8.763h2.09v8.763Zm11.916 3.53h-2.09V37.082h-1.986v10.537h-2.091V35.326h6.167v12.293Zm7.84 0h-2.091V37.082h-1.986v10.537h-2.09V35.326h6.167v12.293Z" fill="#fff"/></g><defs><clipPath id="a"><path fill="#fff" d="M0 0h130v60H0z"/></clipPath></defs></svg>