<svg width="112" height="60" fill="none" xmlns="http://www.w3.org/2000/svg"><g clip-path="url(#a)"><path fill-rule="evenodd" clip-rule="evenodd" d="M108.825 38.886c-1.296 0-1.765-.711-1.765-1.531v-.601h-.055c.027 0-1.186 2.46-4.357 2.46-2.509 0-4.66-1.558-4.66-4.155 0-4.675 6.066-4.921 8.356-4.921h.441v-.192c0-1.914-.8-2.652-2.592-2.652-.634 0-1.875.164-1.875.93v.738h-3.282v-1.476c0-2.571 3.723-2.871 5.074-2.871 4.798 0 6.177 2.378 6.177 5.55v5.195c0 .382.22.601.606.601h1.103v2.925h-3.171Zm-2.013-6.37h-.634c-1.821 0-4.716.273-4.716 2.187 0 .93.717 1.859 2.123 1.859 1.931 0 3.227-1.968 3.227-3.663v-.383Zm-15.054 4.949a4.54 4.54 0 0 1 .027-.52h-.055s-1.157 2.269-4.412 2.269c-3.806 0-6.232-2.98-6.232-7.299 0-4.429 2.647-7.3 6.37-7.3 3.088 0 4.081 1.695 4.081 1.695h.055a6.083 6.083 0 0 1-.055-.82v-2.461c0-.41-.221-.601-.607-.601h-1.075v-2.953h3.336c1.296 0 1.848.574 1.848 1.859V35.36c0 .382.221.601.606.601h1.104v2.925h-3.227c-1.268 0-1.764-.601-1.764-1.421Zm-3.613-9.87c-1.903 0-3.53 1.558-3.53 4.32 0 2.652 1.434 4.374 3.503 4.374 1.819 0 3.529-1.312 3.529-4.402 0-2.159-1.13-4.292-3.502-4.292ZM71.739 39.214c-4.302 0-7.721-3.007-7.721-7.299 0-4.265 3.419-7.3 7.694-7.3 4.301 0 7.721 3.035 7.721 7.3 0 4.292-3.42 7.299-7.694 7.299Zm.001-11.646c-2.29 0-4.192 1.777-4.192 4.347 0 2.597 1.903 4.347 4.192 4.347 2.26 0 4.163-1.75 4.163-4.347 0-2.57-1.903-4.347-4.163-4.347Zm-14.144 9.459v-6.452c0-1.586-.331-2.789-1.93-2.789-1.738 0-2.979 1.449-3.392 3.199a7.182 7.182 0 0 0-.193 1.777v6.124h-3.502v-8.311c0-1.504-.249-2.789-1.903-2.789-1.765 0-2.978 1.449-3.419 3.226a8.662 8.662 0 0 0-.193 1.75v6.124h-3.503V28.497c0-.41-.219-.601-.606-.601h-1.104v-2.953h3.255c1.241 0 1.847.574 1.847 1.558v.41c0 .302-.027.602-.027.602h.055c.662-1.367 2.344-2.898 4.55-2.898 2.123 0 3.502.984 4.081 2.871h.055c.772-1.504 2.592-2.871 4.798-2.871 2.951 0 4.606 1.64 4.606 5.304v5.441c0 .382.22.601.606.601h1.103v2.925h-3.337c-1.296 0-1.847-.546-1.847-1.859ZM-.002 5.356 35.046.007v58.077l-35.048 1.91V5.356Zm25.003 33.858c4.275 0 7.694-3.007 7.694-7.299 0-4.265-3.419-7.3-7.721-7.3-4.274 0-7.693 3.035-7.693 7.3 0 4.292 3.419 7.299 7.72 7.299ZM2.005 22.428h1.103c.386 0 .607.191.607.601v15.857H7.19V32.79h.799c.414 0 1.021.027 1.268.519l2.372 4.374c.524 1.012 1.02 1.203 2.206 1.203h2.592v-2.925h-.965c-.634 0-.91-.109-1.13-.52l-1.628-3.007c-.468-.902-.992-1.093-.992-1.093v-.055s.468-.219 1.048-1.094l3.584-5.249h-3.915l-2.868 4.402c-.303.437-.855.519-1.324.519H7.19v-8.803c0-1.285-.552-1.586-1.848-1.586H2.005v2.953Zm22.997 5.14c2.261 0 4.163 1.777 4.163 4.347 0 2.597-1.903 4.347-4.163 4.347-2.289 0-4.192-1.75-4.192-4.347 0-2.57 1.903-4.347 4.192-4.347Z" fill="#fff"/></g><defs><clipPath id="a"><path fill="#fff" d="M0 0h112v60H0z"/></clipPath></defs></svg>