<svg width="40" height="40" fill="none" xmlns="http://www.w3.org/2000/svg"><circle cx="20" cy="20" r="20" fill="#C0E300"/><g clip-path="url(#a)"><path fill-rule="evenodd" clip-rule="evenodd" d="M26.39 29.774a1.19 1.19 0 0 0 1.107.145c.37-.141.643-.458.725-.84.869-4.082 2.978-14.413 3.77-18.127a.78.78 0 0 0-.26-.757.803.803 0 0 0-.798-.14c-4.195 1.551-17.115 6.393-22.396 8.346a.825.825 0 0 0-.542.798c.012.354.25.661.593.764 2.368.708 5.477 1.692 5.477 1.692s1.453 4.383 2.21 6.612a.88.88 0 0 0 .604.575.866.866 0 0 0 .811-.207l3.098-2.921s3.574 2.617 5.601 4.06Zm-11.016-8.673 1.68 5.536.373-3.506 10.19-9.182a.276.276 0 0 0 .034-.376.286.286 0 0 0-.377-.064l-11.9 7.592Z" fill="#191919"/></g><defs><clipPath id="a"><path fill="#fff" transform="translate(8 10)" d="M0 0h24v20H0z"/></clipPath></defs></svg>