<svg width="54" height="80" viewBox="0 0 54 80" fill="none" xmlns="http://www.w3.org/2000/svg">
<path d="M27 0C12.0885 0 1.80549e-05 11.7889 1.80549e-05 26.3317C-0.0055604 31.0321 1.28164 35.6459 3.72431 39.6807L26.8967 80L50.2766 39.6789C52.7188 35.6446 54.0057 31.0315 54 26.3317C54 11.7889 41.9115 0 27 0ZM26.8967 40.8044C18.555 40.8044 11.7929 34.1898 11.7929 26.0302C11.7929 17.8705 18.555 11.2559 26.8967 11.2559C35.2384 11.2559 41.9996 17.8705 41.9996 26.0302C41.9996 34.1898 35.2384 40.8044 26.8967 40.8044Z" fill="#C0E300"/>
</svg>
