<svg width="136" height="60" viewBox="0 0 136 60" fill="none" xmlns="http://www.w3.org/2000/svg">
<g clip-path="url(#clip0_1_49)">
<path fill-rule="evenodd" clip-rule="evenodd" d="M75.427 22.173L136 21.342L133.55 23.224L116.239 25.238L116.11 27.815H114.97L114.622 25.424L101.862 26.894L101.644 29.719H100.586L100.252 27.08L94.615 27.767C94.575 29.63 94.056 32.172 90.931 32.172C88.453 32.172 87.587 30.331 87.314 28.619L75.994 29.932C75.884 30.079 75.763 30.217 75.632 30.344C73.565 32.262 69.812 34.028 69.129 34.028H66.823C66.148 34.028 62.367 32.262 60.32 30.344C60.187 30.217 60.064 30.079 59.952 29.932L48.631 28.619C48.358 30.331 47.499 32.172 45.022 32.172C41.897 32.179 41.371 29.63 41.337 27.767L35.694 27.08L35.387 29.719H34.329L34.09 26.908L21.365 25.424L21.023 27.802H19.884L19.754 25.224L2.45 23.211L0 21.342L60.389 22.166L60.545 22.022L60.435 21.3H46.4C46.4 9.53397 56.023 -0.00402832 67.894 -0.00402832C79.765 -0.00402832 89.388 9.53397 89.388 21.3H75.554L75.427 22.173ZM132.854 22.159L92.957 22.688C93.25 22.866 93.518 23.081 93.756 23.328L132.854 22.159ZM88.103 27.229C88.338 27.796 88.735 28.281 89.242 28.621C89.751 28.962 90.348 29.143 90.958 29.142L90.964 29.162C91.37 29.16 91.771 29.078 92.145 28.92C92.52 28.762 92.859 28.531 93.144 28.24C93.429 27.95 93.655 27.606 93.808 27.227C93.961 26.849 94.038 26.444 94.035 26.035C94.035 25.421 93.854 24.82 93.515 24.309C93.175 23.798 92.693 23.4 92.13 23.165C91.566 22.93 90.945 22.869 90.347 22.989C89.749 23.11 89.199 23.406 88.768 23.841C88.337 24.276 88.044 24.83 87.925 25.434C87.807 26.037 87.869 26.661 88.103 27.229ZM77.317 23.843L88.003 23.52C88.258 23.226 88.555 22.971 88.883 22.764L76.014 22.936L77.317 23.843ZM4.06 22.159L42.272 23.307C42.506 23.061 42.772 22.848 43.063 22.675L4.06 22.159ZM44.795 22.966C44.243 23.009 43.713 23.201 43.26 23.523C42.808 23.844 42.45 24.282 42.224 24.791C42.155 24.954 42.1 25.121 42.06 25.293L42.019 25.431C41.978 25.629 41.958 25.832 41.958 26.035C41.958 26.859 42.283 27.649 42.861 28.232C43.44 28.814 44.224 29.142 45.042 29.142L45.035 29.155C45.589 29.155 46.132 29.004 46.608 28.719C47.084 28.434 47.474 28.025 47.738 27.535C48.002 27.045 48.13 26.492 48.109 25.935C48.087 25.378 47.917 24.837 47.615 24.369C47.314 23.901 46.893 23.524 46.397 23.277C45.9 23.03 45.347 22.923 44.795 22.966ZM47.117 22.75C47.436 22.956 47.726 23.206 47.976 23.493L58.669 23.816L59.617 22.915L47.117 22.75ZM11.983 54.561L17.586 41.505H21.761L13.904 59.785H9.756L1.925 41.505H6.463L11.983 54.561ZM25.242 39.233C25.985 39.233 26.59 39.442 27.057 39.86C27.523 40.26 27.757 40.782 27.757 41.427C27.757 42.106 27.523 42.671 27.057 43.124C26.607 43.559 26.002 43.777 25.242 43.777C24.498 43.777 23.893 43.559 23.427 43.124C22.96 42.689 22.726 42.149 22.726 41.505C22.726 40.861 22.96 40.321 23.427 39.886C23.893 39.451 24.498 39.233 25.242 39.233ZM27.264 59.785H23.219V45.736H27.264V59.785ZM33.274 56.547C34.156 56.791 35.02 56.912 35.867 56.912C36.8 56.912 37.457 56.8 37.838 56.573C38.235 56.347 38.434 56.033 38.434 55.633C38.434 55.302 38.278 55.058 37.967 54.902C37.673 54.728 37.276 54.597 36.775 54.51C36.273 54.423 35.72 54.336 35.115 54.249C34.527 54.162 33.931 54.049 33.326 53.909C32.721 53.753 32.168 53.526 31.666 53.231C31.165 52.935 30.759 52.534 30.448 52.029C30.154 51.524 30.007 50.871 30.007 50.071C30.007 49.183 30.258 48.399 30.759 47.72C31.277 47.041 32.021 46.51 32.989 46.127C33.957 45.727 35.115 45.527 36.463 45.527C37.414 45.527 38.382 45.631 39.367 45.84C40.353 46.049 41.174 46.354 41.831 46.754L40.482 49.653C39.808 49.252 39.125 48.982 38.434 48.843C37.76 48.687 37.103 48.608 36.463 48.608C35.565 48.608 34.908 48.73 34.493 48.974C34.078 49.218 33.87 49.531 33.87 49.914C33.87 50.262 34.017 50.523 34.311 50.697C34.622 50.871 35.029 51.011 35.53 51.115C36.031 51.22 36.576 51.315 37.163 51.402C37.769 51.472 38.374 51.585 38.979 51.742C39.584 51.899 40.128 52.125 40.612 52.421C41.113 52.7 41.52 53.091 41.831 53.596C42.142 54.084 42.297 54.728 42.297 55.529C42.297 56.399 42.038 57.174 41.52 57.853C41.001 58.514 40.249 59.037 39.264 59.42C38.296 59.803 37.112 59.994 35.711 59.994C34.519 59.994 33.369 59.855 32.263 59.576C31.174 59.28 30.309 58.915 29.67 58.48L31.018 55.555C31.658 55.955 32.41 56.286 33.274 56.547ZM46.427 52.081C47.308 51.716 48.458 51.533 49.875 51.533H53.091C53.091 50.663 52.823 49.984 52.287 49.496C51.768 49.009 50.964 48.765 49.875 48.765C49.132 48.765 48.397 48.887 47.671 49.13C46.963 49.357 46.358 49.67 45.856 50.071L44.404 47.224C45.165 46.684 46.081 46.267 47.153 45.971C48.225 45.675 49.314 45.527 50.42 45.527C52.546 45.527 54.197 46.032 55.372 47.041C56.548 48.051 57.136 49.627 57.136 51.768V59.785H53.35V58.016C53.045 58.539 52.636 58.969 52.105 59.289C51.327 59.759 50.325 59.994 49.097 59.994C48.008 59.994 47.075 59.811 46.297 59.446C45.519 59.063 44.923 58.549 44.508 57.905C44.093 57.261 43.886 56.539 43.886 55.737C43.886 54.902 44.084 54.171 44.482 53.544C44.897 52.917 45.545 52.43 46.427 52.081ZM48.423 56.808C48.838 57.104 49.4 57.252 50.109 57.252C50.783 57.252 51.388 57.096 51.924 56.782C52.46 56.451 52.849 55.973 53.091 55.346V53.909H50.316C49.365 53.909 48.709 54.066 48.346 54.38C48 54.693 47.827 55.084 47.827 55.555C47.827 56.077 48.026 56.495 48.423 56.808ZM76.097 54.561L81.701 41.505H85.876L78.019 59.785H73.87L66.04 41.505H70.577L76.097 54.561ZM89.356 39.233C90.1 39.233 90.705 39.442 91.171 39.86C91.638 40.26 91.871 40.782 91.871 41.427C91.871 42.106 91.638 42.671 91.171 43.124C90.722 43.559 90.117 43.777 89.356 43.777C88.613 43.777 88.008 43.559 87.541 43.124C87.074 42.689 86.841 42.149 86.841 41.505C86.841 40.861 87.074 40.321 87.541 39.886C88.008 39.451 88.613 39.233 89.356 39.233ZM91.379 59.785H87.334V45.736H91.379V59.785ZM97.389 56.547C98.27 56.791 99.135 56.912 99.982 56.912C100.915 56.912 101.572 56.8 101.952 56.573C102.35 56.347 102.549 56.033 102.549 55.633C102.549 55.302 102.393 55.058 102.082 54.902C101.788 54.728 101.391 54.597 100.889 54.51C100.388 54.423 99.835 54.336 99.23 54.249C98.642 54.162 98.046 54.049 97.441 53.909C96.835 53.753 96.282 53.526 95.781 53.231C95.28 52.935 94.873 52.534 94.562 52.029C94.269 51.524 94.122 50.871 94.122 50.071C94.122 49.183 94.373 48.399 94.873 47.72C95.392 47.041 96.135 46.51 97.103 46.127C98.071 45.727 99.23 45.527 100.578 45.527C101.529 45.527 102.497 45.631 103.482 45.84C104.468 46.049 105.289 46.354 105.945 46.754L104.597 49.653C103.923 49.252 103.24 48.982 102.549 48.843C101.874 48.687 101.218 48.608 100.578 48.608C99.679 48.608 99.022 48.73 98.607 48.974C98.193 49.218 97.985 49.531 97.985 49.914C97.985 50.262 98.132 50.523 98.426 50.697C98.737 50.871 99.143 51.011 99.644 51.115C100.146 51.22 100.69 51.315 101.278 51.402C101.883 51.472 102.488 51.585 103.093 51.742C103.698 51.899 104.243 52.125 104.727 52.421C105.228 52.7 105.634 53.091 105.945 53.596C106.257 54.084 106.412 54.728 106.412 55.529C106.412 56.399 106.153 57.174 105.634 57.853C105.116 58.514 104.364 59.037 103.378 59.42C102.41 59.803 101.226 59.994 99.826 59.994C98.633 59.994 97.484 59.855 96.378 59.576C95.288 59.28 94.424 58.915 93.784 58.48L95.133 55.555C95.773 55.955 96.524 56.286 97.389 56.547ZM109.4 42.628H113.445V46.049H116.92V49.183H113.445V54.902C113.445 55.494 113.601 55.955 113.912 56.286C114.223 56.599 114.647 56.756 115.183 56.756C115.823 56.756 116.367 56.582 116.817 56.234L117.905 59.106C117.491 59.402 116.989 59.629 116.402 59.785C115.831 59.925 115.234 59.994 114.612 59.994C112.97 59.994 111.691 59.576 110.775 58.74C109.859 57.887 109.4 56.625 109.4 54.954V49.183H107.248V46.049H109.4V42.628ZM121.81 52.081C122.691 51.716 123.841 51.533 125.258 51.533H128.474C128.474 50.663 128.206 49.984 127.67 49.496C127.151 49.009 126.347 48.765 125.258 48.765C124.515 48.765 123.78 48.887 123.054 49.13C122.345 49.357 121.741 49.67 121.239 50.071L119.787 47.224C120.548 46.684 121.464 46.267 122.535 45.971C123.607 45.675 124.697 45.527 125.803 45.527C127.929 45.527 129.58 46.032 130.755 47.041C131.931 48.051 132.519 49.627 132.519 51.768V59.785H128.733V58.016C128.428 58.539 128.019 58.968 127.488 59.289C126.71 59.759 125.708 59.994 124.48 59.994C123.391 59.994 122.458 59.811 121.68 59.446C120.902 59.063 120.305 58.549 119.891 57.905C119.476 57.261 119.269 56.539 119.269 55.737C119.269 54.902 119.467 54.171 119.865 53.544C120.28 52.917 120.928 52.43 121.81 52.081ZM123.806 56.808C124.221 57.104 124.783 57.252 125.492 57.252C126.166 57.252 126.771 57.096 127.307 56.782C127.842 56.451 128.231 55.973 128.474 55.346V53.909H125.699C124.748 53.909 124.091 54.066 123.728 54.38C123.382 54.693 123.21 55.084 123.21 55.555C123.21 56.077 123.409 56.495 123.806 56.808Z" fill="white"/>
</g>
<defs>
<clipPath id="clip0_1_49">
<rect width="136" height="60" fill="white"/>
</clipPath>
</defs>
</svg>
