<svg width="130" height="60" viewBox="0 0 130 60" fill="none" xmlns="http://www.w3.org/2000/svg">
<g clip-path="url(#clip0_1_53)">
<path fill-rule="evenodd" clip-rule="evenodd" d="M123.196 28.971C124.595 28.971 125.904 28.621 127.123 27.92C128.342 27.202 129.301 26.232 130 25.011V28.917C127.974 30.624 125.707 31.477 123.196 31.477C120.346 31.477 117.899 30.453 115.855 28.405C113.811 26.34 112.789 23.879 112.789 21.023C112.789 18.149 113.802 15.688 115.828 13.641C117.872 11.593 120.328 10.569 123.196 10.569C125.725 10.569 127.992 11.44 130 13.183V17.036C129.283 15.796 128.324 14.826 127.123 14.126C125.939 13.425 124.631 13.075 123.196 13.075C121.027 13.075 119.172 13.856 117.63 15.419C116.088 16.982 115.317 18.85 115.317 21.023C115.317 23.214 116.079 25.091 117.603 26.654C119.145 28.199 121.009 28.971 123.196 28.971ZM103.105 31.423V29.025C105.668 29.025 107.156 28.405 107.568 27.166C107.694 26.789 107.757 26.07 107.757 25.011C105.839 25.011 104.171 24.364 102.755 23.071C101.339 21.76 100.63 20.152 100.63 18.248V11.324H103.105V18.248C103.105 19.451 103.588 20.466 104.556 21.293C105.471 22.101 106.538 22.505 107.757 22.505V11.324H110.285V25.738C110.285 27.858 109.585 29.375 108.187 30.291C107.039 31.046 105.345 31.423 103.105 31.423ZM91.489 25.011V30.723H88.961V11.324C90.664 11.324 92.036 11.431 93.075 11.647C94.671 11.97 96.007 12.752 97.083 13.991C98.158 15.23 98.696 16.649 98.696 18.248C98.696 20.17 97.979 21.777 96.545 23.071C95.11 24.364 93.425 25.011 91.489 25.011ZM94.716 15.203C93.784 14.431 92.708 14.045 91.489 14.045V22.505C92.708 22.505 93.793 22.101 94.743 21.293C95.693 20.466 96.168 19.451 96.168 18.248C96.168 17.044 95.684 16.03 94.716 15.203ZM75.995 31.477C73.306 31.477 70.966 30.552 68.976 28.702C67.004 26.852 65.911 24.58 65.695 21.885H63.652V30.723H61.124V11.324H63.652V19.541H65.669C66.063 16.955 67.228 14.817 69.164 13.129C71.119 11.422 73.395 10.569 75.995 10.569C78.881 10.569 81.328 11.593 83.337 13.641C85.362 15.67 86.375 18.131 86.375 21.023C86.375 23.897 85.362 26.358 83.337 28.405C81.311 30.453 78.863 31.477 75.995 31.477ZM81.562 15.419C80.02 13.856 78.164 13.075 75.995 13.075C73.825 13.075 71.97 13.856 70.429 15.419C68.904 16.982 68.143 18.85 68.143 21.023C68.143 23.214 68.904 25.091 70.429 26.654C71.952 28.199 73.808 28.971 75.995 28.971C78.182 28.971 80.038 28.199 81.562 26.654C83.103 25.091 83.874 23.214 83.874 21.023C83.874 18.85 83.103 16.982 81.562 15.419ZM46.964 45.77C41.367 51.741 34.517 55.931 27.195 59.417C26.846 59.581 26.536 59.807 26.207 60.005H25.995C23.854 58.85 21.697 57.725 19.575 56.535C13.989 53.407 8.82798 49.72 4.56298 44.889C2.01598 42.004 0.127978 38.703 0.0709782 34.807C-0.0700218 25.163 0.0309782 15.516 0.00997821 5.86998C0.00997821 5.22498 0.241978 4.92798 0.819978 4.71398C5.20098 3.08998 9.71498 1.94998 14.302 1.08898C17.532 0.481977 20.813 0.280977 24.082 0.00197656L28.33 0.000976562C31.599 0.231977 34.847 0.626976 38.082 1.16298C41.781 1.77498 45.405 2.65398 48.939 3.90298C49.138 3.97298 49.324 4.08298 49.522 4.15698C52.3 5.18798 52.301 5.18698 52.301 8.16898C52.301 16.533 52.214 24.898 52.332 33.259C52.403 38.298 50.238 42.275 46.964 45.77ZM49.691 32.24C49.447 28.677 49.643 25.083 49.643 21.502C49.643 17 49.615 12.496 49.666 7.99598C49.677 7.08098 49.369 6.68998 48.532 6.42198C43.033 4.66398 37.432 3.43298 31.664 2.93898C22.003 2.11198 12.644 3.50298 3.48498 6.54898C2.89898 6.74298 2.66898 7.02498 2.67198 7.68598C2.70198 16.517 2.69498 25.34 2.70498 34.167C2.69698 34.733 2.73198 35.298 2.81098 35.858C3.39798 39.539 5.56298 42.324 8.07198 44.865C13.107 49.969 19.187 53.554 25.533 56.747C25.926 56.945 26.277 57.034 26.72 56.81C33.244 53.504 39.518 49.827 44.649 44.498C47.927 41.088 50.032 37.235 49.691 32.24ZM29.078 54.614C27.12 56.193 25.352 55.881 23.256 54.668C17.758 51.489 12.379 48.189 8.01998 43.476C5.21098 40.435 3.53398 37.045 3.64298 32.693C3.83998 24.723 3.70798 16.744 3.67898 8.76798C3.67898 8.04898 3.86198 7.69398 4.56198 7.46598C18.927 2.76898 33.286 2.71998 47.658 7.43498C48.443 7.69198 48.661 8.06298 48.653 8.86298C48.61 13.219 48.631 17.58 48.632 21.939C48.632 25.733 48.522 29.529 48.665 33.316C48.797 36.806 47.479 39.654 45.36 42.252C41.465 47.025 36.441 50.365 31.201 53.424C30.502 53.833 29.7 54.112 29.078 54.614ZM17.826 40.692C17.956 40.919 18.107 41.579 18.512 41.042C19.004 40.39 19.19 40.919 19.447 41.166C20.439 42.121 21.326 43.199 22.782 43.585C22.659 43.47 22.538 43.354 22.413 43.241C20.149 41.2 18.578 38.634 17.208 35.975C16.414 34.434 16.3 32.619 15.946 30.892C15.835 31.575 15.794 32.268 15.825 32.96C15.908 35.689 16.459 38.3 17.826 40.692ZM8.85398 15.385C8.46898 16.877 9.48898 18.959 11.04 19.732C11.085 19.107 11.143 18.43 10.774 18.136C9.83998 17.389 9.91498 16.448 9.93398 15.453C9.93998 15.128 10.207 14.567 9.62298 14.517C9.13398 14.475 8.96098 14.96 8.85398 15.385ZM35.055 17.801C34.487 14.027 30.349 12.04 27.103 14.024C26.423 14.44 25.857 14.549 25.183 14.003C24.048 13.087 22.739 12.961 21.372 13.4C19.794 13.908 18.225 14.449 16.646 14.952C16.4 15.031 16.064 15.277 15.86 14.977C14.924 13.585 13.329 13.141 12.032 12.274C11.635 12.006 11.133 11.858 10.659 11.754C10.277 11.667 10.004 11.971 9.80798 12.279C9.64598 12.53 9.81398 12.691 10.031 12.752C11.577 13.189 12.108 14.528 12.809 15.763C13.092 16.263 13 17.562 14.281 16.842C14.471 16.736 14.548 17.026 14.536 17.192C14.508 17.613 14.496 18.043 14.395 18.449C13.789 20.866 12.606 23.06 11.68 25.357C10.688 27.813 10.345 30.331 10.754 32.946C10.796 33.218 10.851 33.811 11.143 33.625C12.406 32.819 12.203 34.062 12.378 34.516C13.1 36.37 13.899 38.154 15.495 39.637C15.677 39.089 15.459 38.78 15.344 38.455C14.154 35.063 14.03 31.606 14.742 28.108C14.85 27.584 14.877 26.602 15.842 27.541C16.29 27.978 16.398 27.55 16.529 27.202C17.134 25.611 17.975 24.121 19.026 22.783C20.109 21.398 20.104 21.398 18.65 20.54C18.475 20.438 18.213 20.297 18.201 20.155C18.174 19.867 18.505 19.817 18.712 19.707C19.847 19.102 21.09 19.095 22.331 19.104C23.087 19.112 23.937 19.115 24.386 18.487C24.836 17.859 25.186 17.585 25.858 18.014C26.425 18.377 27.058 17.615 27.653 18.2C28.147 18.686 28.857 18.768 29.548 18.712C31.101 18.588 32.658 18.537 34.205 18.744C35.028 18.854 35.165 18.53 35.055 17.801ZM41.067 11.856C39.479 12.367 38.313 13.56 36.985 14.514C39.124 14.684 40.334 12.159 42.66 12.806C42.359 11.862 41.756 11.634 41.067 11.856ZM41.31 19.695C42.924 19.048 44.065 16.48 43.386 15.113C43.243 14.826 43.069 14.468 42.716 14.524C42.218 14.603 42.517 15.034 42.503 15.31C42.456 16.146 42.691 17.115 42 17.715C41.324 18.293 41.332 18.944 41.305 19.695H41.31ZM38.943 36.902C39.149 36.528 39.198 35.715 39.984 36.436C40.284 36.712 40.35 36.289 40.42 36.074C41.464 32.738 41.428 29.422 40.323 26.172C39.645 28.559 40.964 31.033 39.327 33.637C38.132 35.541 37.679 38.033 36.295 40.009C37.458 39.19 38.274 38.112 38.943 36.902ZM31.185 23.656C31.277 22.73 31.672 22.633 32.401 22.76C33.896 23.018 35.152 23.83 36.755 24.678C35.983 22.799 34.705 21.869 33.208 21.192C32.988 21.092 32.551 21.124 32.401 21.279C31.154 22.561 30.212 21.904 29.293 20.866C29.179 20.738 29.004 20.664 28.856 20.569C25.54 18.454 21.342 21.067 21.165 23.47C20.99 25.83 21.13 28.211 21.158 30.582C21.164 31.059 21.332 31.494 21.93 31.553C22.611 31.62 23.636 31.188 23.446 32.577C23.437 32.636 23.655 32.751 23.781 32.8C25.237 33.371 26.714 33.597 28.217 32.989C28.56 32.851 29.072 32.744 28.939 32.239C28.765 31.567 29.091 31.508 29.582 31.563C30.915 31.713 31.327 31.052 31.278 29.805C31.191 27.758 30.981 25.717 31.185 23.656ZM28.875 28.817C29.432 28.941 29.974 29.124 29.973 29.758C29.973 30.345 29.362 30.342 28.941 30.474C28.04 30.754 27.113 30.614 26.193 30.704C25.243 30.627 24.292 30.561 23.343 30.466C22.866 30.418 22.392 30.265 22.389 29.679C22.389 29.114 22.833 28.941 23.31 28.823C25.462 28.29 26.118 26.571 24.839 24.79C24.509 24.331 24.122 23.873 23.698 24.741C23.422 25.304 23.108 25.117 22.825 24.749C22.231 23.974 22.223 23.175 22.835 22.417C24.366 20.521 27.617 20.427 29.273 22.2C29.894 22.866 30.085 23.618 29.709 24.441C29.447 25.011 29.028 25.459 28.463 24.716C28.087 24.223 27.864 24.453 27.584 24.786C26.174 26.479 26.763 28.346 28.875 28.817ZM63.214 35.326H67.291V37.082H63.214V47.619H61.124V37.082C61.124 36.116 62.085 35.326 63.214 35.326ZM74.497 37.082V41.472C74.497 42.227 73.536 42.842 72.407 42.842H70.421V47.619H68.331V35.326H72.407C73.536 35.326 74.497 36.116 74.497 37.082ZM70.421 41.472H72.407V37.082H70.421V41.472ZM78.056 44.089H80.042V35.326H82.133V47.619C82.133 48.549 81.192 49.375 80.042 49.375H75.966V47.619H80.042V45.862H78.056C76.927 45.862 75.966 45.055 75.966 44.089V35.326H78.056V44.089ZM89.972 47.619H87.882V37.082H85.896V47.619H83.805V35.326H89.972V47.619ZM97.812 47.619H95.721V37.082H93.735V47.619H91.645V35.326H97.812V47.619Z" fill="white"/>
</g>
<defs>
<clipPath id="clip0_1_53">
<rect width="130" height="60" fill="white"/>
</clipPath>
</defs>
</svg>
