<svg width="112" height="60" viewBox="0 0 112 60" fill="none" xmlns="http://www.w3.org/2000/svg">
<g clip-path="url(#clip0_1_55)">
<path fill-rule="evenodd" clip-rule="evenodd" d="M108.825 38.886C107.529 38.886 107.06 38.175 107.06 37.355V36.754H107.005C107.032 36.754 105.819 39.214 102.648 39.214C100.139 39.214 97.988 37.656 97.988 35.059C97.988 30.384 104.054 30.138 106.344 30.138H106.785V29.946C106.785 28.032 105.985 27.294 104.193 27.294C103.559 27.294 102.318 27.458 102.318 28.224V28.962H99.036V27.486C99.036 24.915 102.759 24.615 104.11 24.615C108.908 24.615 110.287 26.993 110.287 30.165V35.36C110.287 35.742 110.507 35.961 110.893 35.961H111.996V38.886H108.825ZM106.812 32.516H106.178C104.357 32.516 101.462 32.789 101.462 34.703C101.462 35.633 102.179 36.562 103.585 36.562C105.516 36.562 106.812 34.594 106.812 32.899V32.516ZM91.758 37.465C91.757 37.291 91.7661 37.118 91.785 36.945H91.73C91.73 36.945 90.573 39.214 87.318 39.214C83.512 39.214 81.086 36.234 81.086 31.915C81.086 27.486 83.733 24.615 87.456 24.615C90.544 24.615 91.537 26.31 91.537 26.31H91.592C91.555 26.038 91.537 25.764 91.537 25.49V23.029C91.537 22.619 91.316 22.428 90.93 22.428H89.855V19.475H93.191C94.487 19.475 95.039 20.049 95.039 21.334V35.36C95.039 35.742 95.26 35.961 95.645 35.961H96.749V38.886H93.522C92.2541 38.886 91.758 38.285 91.758 37.465ZM88.145 27.595C86.242 27.595 84.615 29.153 84.615 31.915C84.615 34.567 86.049 36.289 88.118 36.289C89.937 36.289 91.647 34.977 91.647 31.887C91.647 29.728 90.517 27.595 88.145 27.595ZM71.739 39.214C67.437 39.214 64.018 36.207 64.018 31.915C64.018 27.65 67.437 24.615 71.712 24.615C76.013 24.615 79.433 27.65 79.433 31.915C79.433 36.207 76.013 39.214 71.739 39.214ZM71.74 27.568C69.45 27.568 67.548 29.345 67.548 31.915C67.548 34.512 69.451 36.262 71.74 36.262C74 36.262 75.903 34.512 75.903 31.915C75.903 29.345 74 27.568 71.74 27.568ZM57.596 37.027V30.575C57.596 28.989 57.265 27.786 55.666 27.786C53.928 27.786 52.687 29.235 52.274 30.985C52.136 31.567 52.071 32.164 52.081 32.762V38.886H48.579V30.575C48.579 29.071 48.33 27.786 46.676 27.786C44.911 27.786 43.698 29.235 43.257 31.012C43.133 31.588 43.069 32.174 43.064 32.762V38.886H39.561V28.497C39.561 28.087 39.342 27.896 38.955 27.896H37.851V24.943H41.106C42.347 24.943 42.953 25.517 42.953 26.501V26.911C42.953 27.213 42.926 27.513 42.926 27.513H42.981C43.643 26.146 45.325 24.615 47.531 24.615C49.654 24.615 51.033 25.599 51.612 27.486H51.667C52.439 25.982 54.259 24.615 56.465 24.615C59.416 24.615 61.071 26.255 61.071 29.919V35.36C61.071 35.742 61.291 35.961 61.677 35.961H62.78V38.886H59.443C58.147 38.886 57.596 38.34 57.596 37.027ZM-0.00195312 5.35596L35.046 0.00695801V58.084L-0.00195312 59.994V5.35596ZM25.001 39.214C29.276 39.214 32.695 36.207 32.695 31.915C32.695 27.65 29.276 24.615 24.974 24.615C20.7 24.615 17.281 27.65 17.281 31.915C17.281 36.207 20.7 39.214 25.001 39.214ZM2.00505 22.428H3.10805C3.49405 22.428 3.71505 22.619 3.71505 23.029V38.886H7.19005V32.79H7.98905C8.40305 32.79 9.01005 32.817 9.25705 33.309L11.629 37.683C12.153 38.695 12.649 38.886 13.835 38.886H16.427V35.961H15.462C14.828 35.961 14.552 35.852 14.332 35.441L12.704 32.434C12.236 31.532 11.712 31.341 11.712 31.341V31.286C11.712 31.286 12.18 31.067 12.76 30.192L16.344 24.943H12.429L9.56105 29.345C9.25805 29.782 8.70605 29.864 8.23705 29.864H7.19005V21.061C7.19005 19.776 6.63805 19.475 5.34205 19.475H2.00505V22.428ZM25.002 27.568C27.263 27.568 29.165 29.345 29.165 31.915C29.165 34.512 27.262 36.262 25.002 36.262C22.713 36.262 20.81 34.512 20.81 31.915C20.81 29.345 22.713 27.568 25.002 27.568Z" fill="white"/>
</g>
<defs>
<clipPath id="clip0_1_55">
<rect width="112" height="60" fill="white"/>
</clipPath>
</defs>
</svg>
