<svg width="196" height="40" viewBox="0 0 196 40" fill="none" xmlns="http://www.w3.org/2000/svg">
<g clip-path="url(#clip0_1_57)">
<path fill-rule="evenodd" clip-rule="evenodd" d="M196 16.0529V17.9049H187.099V3.16994H195.893V5.02294H189.079V9.54794H195.362V11.3799H189.079V16.0529H196ZM181.93 6.91694L174.263 17.9049H172.667V3.16994H174.647V14.1789L182.314 3.16994H183.91V17.9049H181.93V6.91694ZM168.476 17.9049L162.045 10.8319V17.9049H160.065V3.16994H162.045V9.82194L168.262 3.16994H170.69L164.111 10.3269L170.904 17.9049H168.476ZM151.39 16.2629C152.413 16.2629 153.343 16.0249 154.18 15.5479C155.032 15.0559 155.67 14.4109 156.096 13.6109L157.821 14.5789C157.196 15.6739 156.309 16.5509 155.16 17.2109C154.024 17.8559 152.767 18.1789 151.39 18.1789C149.119 18.1789 147.252 17.4419 145.789 15.9689C144.328 14.5089 143.597 12.6989 143.597 10.5379C143.597 8.37694 144.328 6.56594 145.789 5.10694C147.252 3.63294 149.119 2.89594 151.39 2.89594C152.739 2.89594 153.988 3.21894 155.138 3.86494C156.288 4.51094 157.183 5.38094 157.821 6.47494L156.096 7.46494C155.67 6.65094 155.032 6.00494 154.18 5.52794C153.343 5.03694 152.413 4.79094 151.39 4.79094C149.658 4.79094 148.253 5.33794 147.174 6.43294C146.095 7.51394 145.555 8.88194 145.555 10.5379C145.555 12.1799 146.095 13.5409 147.174 14.6209C148.253 15.7159 149.658 16.2629 151.39 16.2629ZM139.215 6.91694L131.549 17.9049H129.952V3.16994H131.932V14.1789L139.599 3.16994H141.195V17.9049H139.215V6.91694ZM132.699 -0.00805664H138.448V1.59194H132.699V-0.00805664ZM118.66 3.16994H127.454V5.02294H120.64V9.54794H126.922V11.3799H120.64V16.0529H127.561V17.9049H118.66V3.16994ZM113.481 5.02294H106.624V17.9049H104.643V3.16994H115.461V17.9049H113.481V5.02294ZM94.532 18.1789C92.375 18.1789 90.55 17.4349 89.059 15.9479C87.569 14.4459 86.824 12.6429 86.824 10.5379C86.824 8.40494 87.569 6.60094 89.059 5.12794C90.55 3.63994 92.375 2.89594 94.532 2.89594C96.69 2.89594 98.514 3.63994 100.005 5.12794C101.51 6.60094 102.262 8.40494 102.262 10.5379C102.262 12.6569 101.51 14.4599 100.005 15.9479C98.514 17.4349 96.69 18.1789 94.532 18.1789ZM98.621 6.45394C97.542 5.34494 96.179 4.79094 94.532 4.79094C92.9 4.79094 91.53 5.34494 90.422 6.45394C89.329 7.56294 88.783 8.92394 88.783 10.5379C88.783 12.1379 89.329 13.4989 90.422 14.6209C91.53 15.7159 92.9 16.2629 94.532 16.2629C96.179 16.2629 97.542 15.7159 98.621 14.6209C99.729 13.4989 100.282 12.1379 100.282 10.5379C100.282 8.90994 99.729 7.54894 98.621 6.45394ZM80.564 12.6429H77.135V17.9049H75.155V3.16994H80.564C81.927 3.16994 83.069 3.62594 83.992 4.53894C84.915 5.45094 85.376 6.57294 85.376 7.90594C85.376 9.23994 84.915 10.3619 83.992 11.2739C83.069 12.1869 81.927 12.6429 80.564 12.6429ZM82.608 5.82294C82.069 5.27494 81.387 5.00194 80.564 5.00194H77.135V10.8119H80.564C81.401 10.8119 82.083 10.5379 82.608 9.98994C83.147 9.41494 83.417 8.71994 83.417 7.90594C83.417 7.06494 83.147 6.36994 82.608 5.82294ZM68.485 17.9049H62.053V3.16994H68.016C69.194 3.16994 70.181 3.55594 70.976 4.32794C71.785 5.09994 72.19 6.05394 72.19 7.19094C72.19 8.50994 71.65 9.53494 70.571 10.2639C71.267 10.6009 71.814 11.0709 72.211 11.6739C72.609 12.2779 72.807 12.9659 72.807 13.7369C72.807 14.9159 72.389 15.9049 71.551 16.7049C70.713 17.5049 69.691 17.9049 68.485 17.9049ZM69.57 5.67494C69.145 5.22594 68.626 5.00194 68.016 5.00194H64.034V9.50594H68.016C68.641 9.50594 69.166 9.28894 69.592 8.85394C70.018 8.41894 70.231 7.88494 70.231 7.25394C70.231 6.63594 70.01 6.10994 69.57 5.67494ZM70.146 11.9899C69.705 11.5269 69.152 11.2959 68.485 11.2959H64.034V16.0739H68.485C69.152 16.0739 69.712 15.8419 70.167 15.3789C70.621 14.9159 70.848 14.3479 70.848 13.6739C70.848 13.0149 70.614 12.4529 70.146 11.9899ZM50.761 3.16994H59.556V5.02294H52.742V9.54794H59.024V11.3799H52.742V16.0529H59.663V17.9049H50.761V3.16994ZM57.682 22.5429C59.84 22.5429 61.664 23.2869 63.155 24.7739C64.66 26.2479 65.412 28.0509 65.412 30.1839C65.412 32.3029 64.66 34.1069 63.155 35.5939C61.664 37.0819 59.84 37.8249 57.682 37.8249C55.524 37.8249 53.7 37.0819 52.209 35.5939C50.719 34.0929 49.973 32.2889 49.973 30.1839C49.973 28.0509 50.719 26.2479 52.209 24.7739C53.7 23.2869 55.524 22.5429 57.682 22.5429ZM53.572 34.2679C54.68 35.3619 56.05 35.9099 57.682 35.9099C59.329 35.9099 60.692 35.3619 61.771 34.2679C62.878 33.1449 63.432 31.7839 63.432 30.1839C63.432 28.5559 62.878 27.1949 61.771 26.0999C60.692 24.9919 59.329 24.4369 57.682 24.4369C56.05 24.4369 54.68 24.9919 53.572 26.0999C52.479 27.2089 51.933 28.5699 51.933 30.1839C51.933 31.7839 52.479 33.1449 53.572 34.2679ZM16.969 40.0079H0V0.713943H16.614H36.489V40.0069L16.969 40.0079ZM20.163 36.4989H32.94V4.22194H20.163V36.4989ZM16.614 4.22194H3.549V16.5259H16.614V4.22194ZM16.614 20.0339H3.549V36.4989H16.614V20.0339ZM69.774 29.4679L75.992 22.8169H78.419L71.839 29.9739L78.632 37.5519H76.205L69.774 30.4789V37.5519H67.793V22.8169H69.774V29.4679ZM82.376 29.0689H89.616V22.8169H91.575V37.5519H89.616V30.9209H82.376V37.5519H80.396V22.8169H82.376V29.0689ZM101.133 22.8169L106.69 37.5519H104.583L103.368 34.2469H96.661L95.446 37.5519H93.339L98.896 22.8169H101.133ZM102.687 32.4149L100.004 25.1529L97.342 32.4149H102.687Z" fill="white"/>
</g>
<defs>
<clipPath id="clip0_1_57">
<rect width="196" height="40" fill="white"/>
</clipPath>
</defs>
</svg>
