<svg width="127" height="40" viewBox="0 0 127 40" fill="none" xmlns="http://www.w3.org/2000/svg">
<g clip-path="url(#clip0_1_59)">
<path fill-rule="evenodd" clip-rule="evenodd" d="M125.874 36.89V30.891H123.873C123.789 31.988 123.684 32.925 123.557 33.702C123.43 34.471 123.27 35.098 123.076 35.581C122.882 36.065 122.65 36.419 122.38 36.644C122.11 36.869 121.793 36.981 121.43 36.981C121.321 36.981 121.211 36.972 121.101 36.955C121 36.946 120.916 36.925 120.848 36.89V36.035C120.899 36.052 120.954 36.065 121.013 36.074C121.072 36.082 121.131 36.087 121.19 36.087C121.375 36.087 121.544 36.009 121.696 35.854C121.848 35.698 121.983 35.46 122.101 35.141C122.228 34.821 122.342 34.42 122.443 33.936C122.544 33.443 122.633 32.865 122.709 32.199C122.785 31.534 122.852 30.783 122.911 29.945H127V36.89H125.874ZM116.452 4.169H126.969V7.036H119.752V10.957H126.428V13.824H119.752V17.753H127V20.62H116.452V4.169ZM119.145 30.385C119.542 30.757 119.74 31.349 119.74 32.16V36.89H118.93L118.714 35.905H118.664C118.47 36.156 118.267 36.367 118.056 36.54C117.854 36.704 117.617 36.825 117.348 36.903C117.086 36.981 116.765 37.02 116.386 37.02C115.981 37.02 115.613 36.946 115.284 36.799C114.964 36.653 114.71 36.428 114.525 36.126C114.339 35.815 114.246 35.426 114.246 34.959C114.246 34.268 114.512 33.737 115.044 33.366C115.576 32.985 116.394 32.778 117.5 32.744L118.651 32.705V32.29C118.651 31.711 118.529 31.31 118.284 31.085C118.04 30.86 117.693 30.748 117.246 30.748C116.892 30.748 116.554 30.804 116.234 30.917C115.913 31.02 115.613 31.141 115.335 31.279L114.993 30.424C115.288 30.26 115.639 30.122 116.044 30.009C116.449 29.889 116.871 29.828 117.31 29.828C118.136 29.828 118.748 30.014 119.145 30.385ZM118.639 33.495L117.639 33.534C116.795 33.569 116.208 33.707 115.879 33.949C115.558 34.191 115.398 34.532 115.398 34.972C115.398 35.361 115.512 35.646 115.74 35.828C115.976 36.009 116.276 36.1 116.639 36.1C117.212 36.1 117.689 35.94 118.069 35.62C118.449 35.292 118.639 34.791 118.639 34.117V33.495ZM105.283 17.158C105.882 17.565 106.576 17.769 107.363 17.769C107.805 17.769 108.214 17.707 108.59 17.584C108.972 17.461 109.309 17.281 109.604 17.046C109.899 16.805 110.143 16.513 110.336 16.17C110.534 15.827 110.671 15.436 110.747 14.997L114.086 15.013C113.999 15.768 113.783 16.497 113.437 17.198C113.097 17.894 112.637 18.518 112.058 19.07C111.484 19.616 110.798 20.05 110.001 20.371C109.208 20.687 108.311 20.845 107.31 20.845C105.918 20.845 104.673 20.513 103.576 19.849C102.484 19.185 101.62 18.224 100.984 16.965C100.354 15.707 100.039 14.183 100.039 12.394C100.039 10.6 100.36 9.074 101 7.816C101.64 6.557 102.509 5.598 103.606 4.94C104.704 4.276 105.938 3.944 107.31 3.944C108.214 3.944 109.053 4.078 109.825 4.345C110.602 4.613 111.291 5.004 111.89 5.518C112.49 6.027 112.978 6.651 113.354 7.39C113.735 8.129 113.979 8.975 114.086 9.928H110.747C110.686 9.473 110.562 9.069 110.374 8.715C110.186 8.356 109.944 8.051 109.65 7.8C109.355 7.548 109.015 7.355 108.628 7.221C108.248 7.087 107.834 7.02 107.386 7.02C106.578 7.02 105.875 7.232 105.275 7.655C104.676 8.073 104.211 8.683 103.881 9.486C103.55 10.284 103.385 11.254 103.385 12.394C103.385 13.567 103.55 14.553 103.881 15.351C104.216 16.148 104.683 16.751 105.283 17.158ZM101.171 29.958C101.441 29.863 101.757 29.815 102.12 29.815C102.956 29.815 103.626 30.113 104.133 30.709C104.648 31.305 104.905 32.204 104.905 33.405C104.905 34.191 104.787 34.856 104.551 35.4C104.323 35.936 103.998 36.342 103.576 36.618C103.162 36.886 102.673 37.02 102.107 37.02C101.762 37.02 101.454 36.972 101.183 36.877C100.914 36.782 100.681 36.661 100.487 36.514C100.302 36.359 100.141 36.19 100.006 36.009H99.93C99.947 36.156 99.964 36.342 99.981 36.566C99.998 36.791 100.006 36.985 100.006 37.149V40H98.893V29.945H99.804L99.956 30.891H100.006C100.141 30.692 100.302 30.51 100.487 30.346C100.681 30.182 100.909 30.053 101.171 29.958ZM100.006 33.184V33.405C100.006 33.975 100.065 34.458 100.183 34.856C100.302 35.253 100.5 35.555 100.778 35.763C101.065 35.97 101.454 36.074 101.943 36.074C102.357 36.074 102.694 35.957 102.956 35.724C103.226 35.491 103.424 35.175 103.55 34.778C103.686 34.372 103.753 33.91 103.753 33.392C103.753 32.597 103.601 31.962 103.297 31.487C103.002 31.012 102.542 30.774 101.918 30.774C101.462 30.774 101.095 30.865 100.816 31.046C100.538 31.219 100.335 31.482 100.209 31.836C100.082 32.191 100.015 32.64 100.006 33.184ZM94.326 38.976C94.115 39.305 93.853 39.555 93.541 39.728C93.237 39.909 92.866 40 92.427 40C92.224 40 92.047 39.987 91.895 39.961C91.743 39.944 91.612 39.922 91.503 39.896V38.989C91.596 39.007 91.705 39.024 91.832 39.041C91.967 39.058 92.106 39.067 92.25 39.067C92.511 39.067 92.735 39.015 92.921 38.912C93.115 38.817 93.279 38.674 93.414 38.484C93.549 38.302 93.663 38.087 93.756 37.836L94.111 36.916L91.376 29.945H92.566L94.035 33.897C94.119 34.13 94.195 34.355 94.262 34.571C94.338 34.787 94.406 34.998 94.465 35.206C94.524 35.404 94.57 35.599 94.604 35.789H94.655C94.706 35.573 94.786 35.292 94.895 34.946C95.005 34.592 95.119 34.238 95.237 33.884L96.617 29.945H97.82L94.895 37.849C94.735 38.281 94.545 38.657 94.326 38.976ZM87.946 10.266H87.832V20.62H84.532V4.169H87.428L94.166 14.515H94.302V4.169H97.587V20.62H94.737L87.946 10.266ZM86.085 29.945H87.123V33.314L89.883 29.945H91.085L88.288 33.314L91.326 36.89H90.06L87.123 33.366V36.89H86.085V33.366L83.149 36.89H81.883L84.921 33.314L82.123 29.945H83.339L86.085 33.314V29.945ZM77.962 16.869H72.326L71.168 20.62H67.632L73.02 4.169H77.273L82.653 20.62H79.117L77.962 16.869ZM75.207 7.928H75.086L73.164 14.154H77.125L75.207 7.928ZM67.968 34.765C67.968 35.197 67.875 35.573 67.69 35.892C67.512 36.212 67.23 36.458 66.842 36.631C66.462 36.804 65.959 36.89 65.335 36.89H62.512V29.945H63.626V32.795H65.386C65.976 32.795 66.462 32.869 66.842 33.016C67.221 33.163 67.504 33.383 67.69 33.677C67.875 33.962 67.968 34.324 67.968 34.765ZM66.449 33.975C66.171 33.819 65.769 33.741 65.247 33.741H63.626V35.97H65.234C65.715 35.97 66.107 35.888 66.411 35.724C66.715 35.551 66.867 35.253 66.867 34.83C66.867 34.407 66.728 34.121 66.449 33.975ZM56.11 10.266H55.996V20.62H52.696V4.169H55.592L62.33 14.515H62.466V4.169H65.751V20.62H62.901L56.11 10.266ZM53.453 33.405C53.453 33.983 53.377 34.497 53.226 34.946C53.082 35.387 52.871 35.763 52.593 36.074C52.322 36.385 51.989 36.622 51.593 36.786C51.205 36.942 50.77 37.02 50.289 37.02C49.842 37.02 49.428 36.942 49.048 36.786C48.668 36.622 48.339 36.385 48.061 36.074C47.783 35.763 47.563 35.387 47.403 34.946C47.251 34.497 47.175 33.983 47.175 33.405C47.175 32.636 47.302 31.988 47.555 31.461C47.808 30.925 48.171 30.519 48.643 30.243C49.116 29.958 49.677 29.815 50.327 29.815C50.943 29.815 51.483 29.958 51.947 30.243C52.42 30.519 52.787 30.925 53.048 31.461C53.319 31.988 53.453 32.636 53.453 33.405ZM52.086 31.992C51.943 31.603 51.724 31.305 51.428 31.098C51.141 30.882 50.766 30.774 50.301 30.774C49.61 30.774 49.108 31.007 48.795 31.474C48.483 31.94 48.327 32.584 48.327 33.405C48.327 33.949 48.394 34.424 48.529 34.83C48.673 35.227 48.892 35.534 49.187 35.75C49.483 35.966 49.858 36.074 50.314 36.074C50.77 36.074 51.146 35.966 51.441 35.75C51.736 35.534 51.951 35.227 52.086 34.83C52.23 34.424 52.301 33.949 52.301 33.405C52.301 32.852 52.23 32.381 52.086 31.992ZM46.681 4.169H49.981V20.62H46.681V4.169ZM45.005 30.917C44.734 30.847 44.481 30.813 44.245 30.813C43.789 30.813 43.414 30.912 43.118 31.111C42.823 31.31 42.604 31.603 42.46 31.992C42.317 32.381 42.245 32.865 42.245 33.443C42.245 33.996 42.317 34.467 42.46 34.856C42.604 35.245 42.819 35.538 43.106 35.737C43.393 35.936 43.752 36.035 44.182 36.035C44.553 36.035 44.878 35.996 45.156 35.918C45.443 35.841 45.705 35.746 45.941 35.633V36.644C45.713 36.765 45.46 36.856 45.181 36.916C44.912 36.985 44.583 37.02 44.195 37.02C43.595 37.02 43.059 36.894 42.587 36.644C42.123 36.393 41.756 36.005 41.485 35.478C41.224 34.951 41.093 34.277 41.093 33.456C41.093 32.601 41.232 31.906 41.511 31.37C41.789 30.834 42.165 30.442 42.637 30.191C43.118 29.94 43.663 29.815 44.271 29.815C44.616 29.815 44.95 29.854 45.27 29.932C45.591 30.001 45.853 30.087 46.055 30.191L45.713 31.137C45.511 31.059 45.274 30.986 45.005 30.917ZM37.427 10.957H43.776V13.824H37.427V20.62H34.127V4.169H44.461V7.036H37.427V10.957ZM34.527 32.834H38.211V29.945H39.324V36.89H38.211V33.793H34.527V36.89H33.413V29.945H34.527V32.834ZM30.292 35.905H30.242C30.047 36.156 29.845 36.367 29.634 36.54C29.431 36.704 29.195 36.825 28.925 36.903C28.664 36.981 28.343 37.02 27.963 37.02C27.558 37.02 27.191 36.946 26.862 36.799C26.541 36.653 26.288 36.428 26.102 36.126C25.917 35.815 25.824 35.426 25.824 34.959C25.824 34.268 26.09 33.737 26.621 33.366C27.153 32.985 27.972 32.778 29.077 32.744L30.229 32.705V32.29C30.229 31.711 30.107 31.31 29.862 31.085C29.617 30.86 29.271 30.748 28.824 30.748C28.469 30.748 28.132 30.804 27.811 30.917C27.491 31.02 27.191 31.141 26.912 31.279L26.571 30.424C26.866 30.26 27.216 30.122 27.621 30.009C28.026 29.889 28.448 29.828 28.887 29.828C29.714 29.828 30.326 30.014 30.723 30.385C31.119 30.757 31.318 31.349 31.318 32.16V36.89H30.507L30.292 35.905ZM30.216 33.495L29.216 33.534C28.372 33.569 27.786 33.707 27.457 33.949C27.136 34.191 26.976 34.532 26.976 34.972C26.976 35.361 27.09 35.646 27.317 35.828C27.554 36.009 27.853 36.1 28.216 36.1C28.79 36.1 29.267 35.94 29.647 35.62C30.026 35.292 30.216 34.791 30.216 34.117V33.495ZM18.157 12.709C18.157 11.034 18.115 9.946 17.831 9.24C17.984 11.05 17.841 12.394 17.841 12.394C17.841 10.171 17.766 9.008 17.132 8.401C16.426 7.985 15.239 7.94 13.245 7.94H10.63V7.743V0H11.472H18.157C21.819 0 26.295 2.208 26.295 7.746V24.789H18.157V12.709ZM15.665 16.623V16.849V24.789H8.052C4.43 24.789 0 22.581 0 17.042L0.007 0H8.059V12.079C8.059 14.204 8.125 15.385 8.664 16.04C9.33 16.571 10.567 16.623 12.861 16.623H15.665ZM2.129 30.372C2.635 30.07 3.243 29.893 3.952 29.841V27.042H5.002V29.841C5.677 29.901 6.264 30.083 6.762 30.385C7.268 30.688 7.66 31.094 7.939 31.603C8.217 32.113 8.357 32.718 8.357 33.417C8.357 34.117 8.222 34.726 7.952 35.245C7.682 35.754 7.298 36.16 6.8 36.462C6.302 36.756 5.703 36.933 5.002 36.994V40H3.914V36.994C3.247 36.933 2.66 36.756 2.154 36.462C1.648 36.16 1.255 35.754 0.977 35.245C0.698 34.726 0.559 34.117 0.559 33.417C0.559 32.709 0.694 32.1 0.964 31.59C1.234 31.072 1.622 30.666 2.129 30.372ZM5.002 36.061C5.508 36 5.922 35.862 6.243 35.646C6.572 35.43 6.812 35.136 6.964 34.765C7.125 34.385 7.205 33.936 7.205 33.417C7.205 32.899 7.125 32.454 6.964 32.083C6.804 31.711 6.559 31.418 6.23 31.202C5.909 30.986 5.5 30.852 5.002 30.8V36.061ZM1.952 34.765C2.112 35.136 2.357 35.435 2.686 35.659C3.015 35.875 3.437 36.009 3.952 36.061V30.787C3.437 30.839 3.015 30.973 2.686 31.189C2.357 31.405 2.112 31.698 1.952 32.07C1.8 32.441 1.724 32.89 1.724 33.417C1.724 33.936 1.8 34.385 1.952 34.765ZM11.174 34.182C11.174 34.26 11.17 34.372 11.162 34.519C11.162 34.657 11.158 34.808 11.149 34.972C11.141 35.128 11.132 35.279 11.124 35.426C11.115 35.564 11.107 35.676 11.099 35.763L14.731 29.945H16.099V36.89H15.061V32.795C15.061 32.657 15.061 32.476 15.061 32.251C15.069 32.027 15.077 31.806 15.086 31.59C15.094 31.366 15.103 31.197 15.111 31.085L11.504 36.89H10.124V29.945H11.174V34.182ZM19.372 32.834H23.055V29.945H24.169V36.89H23.055V33.793H19.372V36.89H18.258V29.945H19.372V32.834ZM59.422 30.113C59.81 30.217 60.113 30.398 60.333 30.657C60.561 30.908 60.675 31.253 60.675 31.694C60.675 32.126 60.548 32.463 60.295 32.705C60.042 32.947 59.717 33.111 59.32 33.197V33.249C59.742 33.309 60.109 33.465 60.422 33.715C60.734 33.957 60.89 34.337 60.89 34.856C60.89 35.149 60.835 35.422 60.725 35.672C60.624 35.923 60.464 36.139 60.244 36.32C60.025 36.501 59.742 36.644 59.396 36.748C59.05 36.843 58.632 36.89 58.143 36.89H55.219V29.945H58.13C58.611 29.945 59.042 30.001 59.422 30.113ZM56.333 35.97H58.016C58.573 35.97 58.999 35.888 59.295 35.724C59.59 35.551 59.738 35.262 59.738 34.856C59.738 34.458 59.59 34.173 59.295 34.001C58.999 33.828 58.565 33.741 57.991 33.741H56.333V35.97ZM56.333 30.891V32.795H57.864C58.413 32.795 58.831 32.718 59.118 32.562C59.404 32.407 59.548 32.165 59.548 31.836C59.548 31.508 59.43 31.271 59.194 31.124C58.966 30.968 58.59 30.891 58.067 30.891H56.333ZM70.208 36.89H69.095V29.945H70.208V36.89ZM75.466 29.038C74.917 29.038 74.474 28.964 74.137 28.817C73.807 28.67 73.567 28.455 73.415 28.169C73.263 27.876 73.17 27.509 73.137 27.068H74.175C74.217 27.534 74.335 27.85 74.529 28.014C74.732 28.169 75.052 28.247 75.491 28.247C75.879 28.247 76.183 28.165 76.402 28.001C76.63 27.828 76.765 27.517 76.808 27.068H77.858C77.824 27.5 77.719 27.863 77.542 28.157C77.373 28.45 77.12 28.67 76.782 28.817C76.445 28.964 76.006 29.038 75.466 29.038ZM73.415 34.182C73.415 34.26 73.411 34.372 73.402 34.519C73.402 34.657 73.398 34.808 73.39 34.972C73.381 35.128 73.373 35.279 73.364 35.426C73.356 35.564 73.347 35.676 73.339 35.763L76.972 29.945H78.339V36.89H77.301V32.795C77.301 32.657 77.301 32.476 77.301 32.251C77.31 32.027 77.318 31.806 77.327 31.59C77.335 31.366 77.343 31.197 77.352 31.085L73.744 36.89H72.364V29.945H73.415V34.182ZM107.794 32.834H111.478V29.945H112.592V36.89H111.478V33.793H107.794V36.89H106.68V29.945H107.794V32.834Z" fill="white"/>
</g>
<defs>
<clipPath id="clip0_1_59">
<rect width="127" height="40" fill="white"/>
</clipPath>
</defs>
</svg>
