<svg width="152" height="60" viewBox="0 0 152 60" fill="none" xmlns="http://www.w3.org/2000/svg">
<g clip-path="url(#clip0_1_51)">
<path fill-rule="evenodd" clip-rule="evenodd" d="M151.888 56.09C151.962 56.235 152 56.38 152 56.489C152 56.67 151.925 56.851 151.776 56.996C151.589 57.141 151.402 57.214 151.215 57.214H145.945C145.235 57.214 144.749 56.888 144.45 56.272L140.637 49.023C140.413 48.624 140.077 48.443 139.628 48.443H134.732C135.368 48.443 135.853 48.66 136.227 49.059C136.563 49.494 136.75 49.929 136.75 50.364V56.344C136.75 56.598 136.675 56.815 136.488 56.96C136.302 57.141 136.077 57.214 135.816 57.214H130.695C130.284 57.214 129.761 56.779 129.761 56.344V35.105C129.761 33.329 131.181 31.988 133.012 31.988H140.937C146.692 31.988 151.402 34.271 151.402 40.252C151.402 43.187 150.019 45.543 147.402 46.993C147.216 47.102 147.103 47.247 147.103 47.428C147.066 47.609 147.103 47.718 147.178 47.827L151.888 56.09ZM143.291 37.932C142.656 37.425 141.871 37.171 140.899 37.171H134.47C135.554 37.171 136.526 38.005 136.526 39.092V42.028C136.526 42.318 136.638 42.571 136.862 42.789C137.049 43.006 137.311 43.115 137.648 43.115H140.899C142.842 43.115 144.188 42.173 144.188 40.215C144.188 39.237 143.889 38.476 143.291 37.932ZM124.58 57.214H106.713C106.265 57.214 105.779 56.743 105.779 56.308V35.105C105.779 33.329 107.2 31.952 109.031 31.952H124.281C124.879 31.952 125.253 32.314 125.253 32.894V36.482C125.253 36.736 125.179 36.954 124.991 37.099C124.804 37.28 124.58 37.352 124.281 37.352H110.489C111.61 37.352 112.544 38.222 112.544 39.31V40.832C112.544 41.448 113.031 41.955 113.666 41.955H121.814C122.412 41.955 122.786 42.318 122.786 42.898V46.16C122.786 46.703 122.375 47.102 121.814 47.102H110.489C111.535 47.102 112.544 47.936 112.544 48.986V50.69C112.544 51.306 113.031 51.814 113.666 51.814H124.58C125.215 51.814 125.552 52.14 125.552 52.756V56.308C125.552 56.598 125.477 56.815 125.29 56.96C125.104 57.141 124.842 57.214 124.58 57.214ZM111.671 10.402C116.455 11.127 121.277 12.613 121.277 18.013C121.277 23.921 115.073 25.987 109.952 25.987C106.476 25.987 102.214 25.189 99.972 22.29C99.075 21.166 98.627 19.97 98.59 18.702C98.59 18.484 98.664 18.303 98.814 18.158C99 18.013 99.224 17.941 99.411 17.941H104.345C104.98 17.941 105.317 18.086 105.691 18.593C106.14 19.354 106.737 19.898 107.522 20.152C108.27 20.442 109.092 20.587 109.952 20.587C110.325 20.587 110.737 20.55 111.223 20.478C111.709 20.442 112.157 20.333 112.568 20.152C113.428 19.862 114.1 19.282 114.1 18.339C114.1 17.723 113.839 17.252 113.316 16.926C112.793 16.636 112.27 16.418 111.746 16.237C110.587 15.911 109.429 15.657 108.233 15.367C103.635 14.498 99.262 12.83 99.262 7.684C99.262 2.138 104.831 0 109.69 0C113.166 0 116.83 1.124 119.035 3.842C119.895 4.929 120.343 6.017 120.38 7.068C120.38 7.249 120.305 7.466 120.155 7.647C120.006 7.793 119.82 7.865 119.595 7.865H114.4C113.839 7.865 113.428 7.647 113.129 7.213C113.017 6.886 112.867 6.596 112.605 6.343C112.344 6.125 112.082 5.944 111.746 5.799C111.41 5.69 111.036 5.581 110.7 5.509C110.363 5.473 110.027 5.437 109.69 5.437C108.195 5.437 106.401 5.799 106.401 7.539C106.401 8.227 106.774 8.807 107.522 9.206C108.27 9.605 109.653 10.003 111.671 10.402ZM84.134 25.697H74.154C73.593 25.697 73.22 25.334 73.22 24.791V3.588C73.22 1.848 74.677 0.435 76.471 0.435H83.947C90.787 0.435 95.533 3.516 95.684 10.293C95.72 10.619 95.72 11.018 95.72 11.489V14.606C95.72 15.077 95.72 15.476 95.684 15.802C95.458 22.399 91.609 25.697 84.134 25.697ZM88.656 11.526C88.619 11.091 88.619 10.692 88.582 10.366C88.507 7.357 86.899 5.835 83.76 5.835H78.153C79.2 5.835 80.209 6.669 80.209 7.72V19.173C80.209 19.499 80.321 19.753 80.545 19.97C80.732 20.188 81.031 20.296 81.368 20.296H83.947C87.161 20.296 88.507 18.774 88.582 15.73C88.619 15.404 88.619 15.005 88.656 14.534V11.526ZM75.972 31.916C76.234 31.916 76.458 31.988 76.645 32.169C76.832 32.387 76.907 32.604 76.907 32.858V56.235C76.907 56.453 76.832 56.67 76.645 56.888C76.458 57.069 76.234 57.178 75.972 57.178H71.749C71.188 57.178 70.777 56.96 70.478 56.489C68.983 54.278 67.637 52.285 66.441 50.509C65.731 49.458 65.133 48.588 64.722 47.936C64.311 47.319 63.899 46.703 63.526 46.16C63.152 45.616 62.853 45.181 62.591 44.782C62.33 44.42 62.18 44.202 62.143 44.13L61.769 56.272C61.769 56.779 61.32 57.178 60.797 57.178H56.05C55.602 57.178 55.116 56.707 55.116 56.272V35.069C55.116 33.329 56.574 31.916 58.368 31.916H59.601C60.648 31.916 61.134 32.242 61.731 33.039C63.189 35.25 64.535 37.28 65.694 39.056C66.404 40.143 67.002 41.013 67.413 41.629C67.824 42.281 68.198 42.861 68.572 43.405C68.945 43.949 69.244 44.42 69.506 44.818C69.768 45.217 69.917 45.435 69.955 45.507L70.291 35.069C70.291 33.293 71.749 31.916 73.58 31.916H75.972ZM69.492 25.697H64.67C64.035 25.697 63.624 25.443 63.4 24.899L61.456 19.789C58.353 20.913 54.99 21.384 51.7 21.384H50.392C50.803 21.456 51.14 21.674 51.401 22.036C51.663 22.471 51.7 22.979 51.476 23.522L50.953 24.899C50.729 25.443 50.317 25.697 49.682 25.697H44.86C44.674 25.697 44.487 25.624 44.3 25.48C44.15 25.298 44.076 25.117 44.076 24.936C44.076 24.755 44.076 24.646 44.113 24.61L52.784 1.486C53.046 0.797 53.569 0.435 54.279 0.435H60.073C60.783 0.435 61.306 0.797 61.568 1.486L70.24 24.61C70.277 24.646 70.277 24.755 70.277 24.936C70.277 25.334 69.903 25.697 69.492 25.697ZM57.157 6.778L53.794 16.201C55.7 16.092 58.316 15.657 60.036 14.751L57.157 6.778ZM46.462 31.733H49.265C49.826 31.733 50.237 32.095 50.237 32.639V42.243C50.237 49.238 45.565 52.174 39.024 52.174C32.109 52.174 27.736 48.948 27.736 42.243V34.85C27.736 34.342 27.848 33.907 28.072 33.509C28.259 33.11 28.521 32.784 28.857 32.53C29.156 32.276 29.492 32.059 29.903 31.914C30.277 31.805 30.651 31.733 30.987 31.733H33.791C34.351 31.733 34.762 32.095 34.762 32.639V42.171C34.762 44.926 36.033 46.629 38.986 46.629C41.976 46.629 43.21 44.962 43.21 42.171V34.813C43.21 34.306 43.322 33.871 43.546 33.472C44.032 32.421 45.265 31.733 46.462 31.733ZM41.175 25.624H23.309C22.748 25.624 22.374 25.262 22.374 24.718V3.516C22.374 1.74 23.795 0.362 25.626 0.362H40.876C41.362 0.362 41.848 0.834 41.848 1.305V4.893C41.848 5.147 41.736 5.364 41.549 5.509C41.362 5.69 41.138 5.763 40.876 5.763H27.046C28.168 5.763 29.102 6.633 29.102 7.72V9.242C29.102 9.895 29.625 10.366 30.261 10.366H38.372C39.007 10.366 39.343 10.692 39.343 11.308V14.57C39.343 15.186 39.007 15.512 38.372 15.512H27.046C28.093 15.512 29.102 16.346 29.102 17.397V19.1C29.102 19.354 29.214 19.608 29.439 19.862C29.625 20.115 29.925 20.224 30.261 20.224H41.175C41.773 20.224 42.147 20.587 42.147 21.166V24.718C42.147 25.226 41.698 25.624 41.175 25.624ZM22.763 56.344C22.763 56.634 22.688 56.851 22.501 56.996C22.314 57.178 22.09 57.25 21.791 57.25H16.745C16.222 57.25 15.773 56.851 15.773 56.344V47.754C15.773 47.392 15.661 47.138 15.437 46.957C15.175 46.776 14.914 46.703 14.652 46.703C14.54 46.703 14.428 46.739 14.278 46.776C11.998 47.392 9.681 47.573 7.326 47.573C6.84 47.573 6.391 47.573 6.055 47.537H5.233C5.719 47.609 6.167 47.827 6.504 48.153C6.84 48.515 6.99 48.95 6.99 49.422V56.344C6.99 56.634 6.915 56.851 6.728 56.996C6.541 57.178 6.317 57.25 6.018 57.25H0.934C0.374 57.25 0 56.888 0 56.344V35.141C0 33.402 1.458 31.988 3.252 31.988H6.018C6.653 31.988 6.99 32.314 6.99 32.931V41.339C6.99 41.738 7.139 42.028 7.438 42.173C7.737 42.354 7.961 42.427 8.148 42.427C10.69 42.354 12.671 42.136 15.026 41.158C15.474 40.904 15.773 40.65 15.773 40.107V35.141C15.773 33.402 17.268 31.988 19.025 31.988H21.791C22.426 31.988 22.763 32.314 22.763 32.931V56.344ZM18.24 25.588H0.934C0.486 25.588 0 25.117 0 24.682V3.443C0 2.102 0.86 1.087 2.056 0.544C2.467 0.399 2.841 0.326 3.252 0.326H6.13C6.429 0.326 6.653 0.399 6.803 0.58C6.99 0.761 7.064 0.979 7.064 1.232V18.811C7.064 18.992 7.176 19.246 7.363 19.499C7.55 19.789 7.849 19.934 8.186 19.934H18.24C18.763 19.934 19.212 20.333 19.212 20.84V24.682C19.212 25.189 18.763 25.588 18.24 25.588ZM31.31 54.783H46.707C47.656 54.783 48.425 55.55 48.425 56.497V58.286C48.425 59.232 47.656 60 46.707 60H31.31C30.362 60 29.593 59.232 29.593 58.286V56.497C29.593 55.55 30.362 54.783 31.31 54.783ZM83.549 31.916H101.49C102.05 31.916 102.462 32.278 102.462 32.822V36.881C102.462 37.425 102.05 37.787 101.49 37.787H92.818C93.865 37.787 94.948 38.621 94.948 39.672V56.272C94.948 56.525 94.837 56.743 94.65 56.888C94.462 57.069 94.238 57.141 93.977 57.141H88.782C88.52 57.141 88.296 57.069 88.109 56.888C87.922 56.743 87.81 56.525 87.81 56.272V38.874C87.81 38.258 87.324 37.787 86.688 37.787H81.269C80.745 37.787 80.297 37.388 80.297 36.881V35.033C80.297 33.329 81.792 31.916 83.549 31.916Z" fill="white"/>
</g>
<defs>
<clipPath id="clip0_1_51">
<rect width="152" height="60" fill="white"/>
</clipPath>
</defs>
</svg>
